<svg width="120" height="38" viewBox="0 0 120 38" fill="none" xmlns="http://www.w3.org/2000/svg">
<g clip-path="url(#clip0_235_108)">
<path d="M54.8626 30.5312H53.083V34.4256H67.583V32.6481H54.8626V30.5312Z" fill="black"/>
<path d="M48.8495 31.7214H35.9531V33.5117H48.8495V34.4259H50.627V23.5063H48.8495V31.7214Z" fill="black"/>
<path d="M4.22102 23.9771C1.88991 23.9771 0 25.867 0 28.1959C0 30.5271 1.88991 32.417 4.22102 32.417C6.55213 32.417 8.44204 30.5271 8.44204 28.1959C8.44204 25.867 6.55213 23.9771 4.22102 23.9771ZM4.22102 30.5461C2.92502 30.5461 1.87295 29.4941 1.87295 28.1959C1.87295 26.8978 2.92502 25.8479 4.22102 25.8479C5.51914 25.8479 6.5691 26.8999 6.5691 28.1959C6.5691 29.4962 5.51914 30.5461 4.22102 30.5461Z" fill="black"/>
<path d="M16.4259 23.5063H14.6484V34.4237H16.4259V23.5063Z" fill="black"/>
<path d="M11.5111 25.286H9.05273V27.0635H11.5111V29.1549H9.05273V30.9324H11.5111V34.4259H13.2886V23.5063H11.5111V25.286Z" fill="black"/>
<path d="M65.0139 30.9409H66.7935V23.5063H65.0139V25.8078H62.3477V27.5853H65.0139V30.9409Z" fill="black"/>
<path d="M53.857 29.5364L57.2275 26.6093L60.6001 29.5364L61.7667 28.1959L58.9159 25.7184H61.3722V23.9409H53.0828V25.7184H55.5412L52.6904 28.1959L53.857 29.5364Z" fill="black"/>
<path d="M39.9794 30.4306C41.899 30.4306 43.4559 28.8758 43.4559 26.954C43.4559 25.0344 41.899 23.4775 39.9794 23.4775C38.0598 23.4775 36.5029 25.0323 36.5029 26.954C36.5051 28.8758 38.0598 30.4306 39.9794 30.4306ZM39.9794 25.3462C40.8661 25.3462 41.5872 26.0674 41.5872 26.954C41.5872 27.8407 40.8682 28.5619 39.9794 28.5619C39.0928 28.5619 38.3716 27.8428 38.3716 26.954C38.3716 26.0653 39.0928 25.3462 39.9794 25.3462Z" fill="black"/>
<path d="M77.4396 30.0713C75.3609 30.0713 73.6768 31.7555 73.6768 33.8341C73.6768 35.9128 75.3609 37.597 77.4396 37.597C79.5183 37.597 81.2025 35.9128 81.2025 33.8341C81.2025 31.7576 79.5183 30.0713 77.4396 30.0713ZM77.4396 35.7262C76.396 35.7262 75.5476 34.8799 75.5476 33.8341C75.5476 32.7884 76.3939 31.9421 77.4396 31.9421C78.4832 31.9421 79.3317 32.7884 79.3317 33.8341C79.3317 34.8799 78.4853 35.7262 77.4396 35.7262Z" fill="black"/>
<path d="M77.0216 27.267H70.9679V25.7101H77.0216V23.9326H69.1904V29.0445H77.0216V27.267Z" fill="black"/>
<path d="M82.3734 25.8608V23.5063H80.5938V29.5261H82.3734V27.6383H85.0417V25.8608H82.3734Z" fill="black"/>
<path d="M26.4337 22.0152L31.2677 24.8171L32.1565 23.2772L26.4337 19.9619L20.7109 23.2772L21.5997 24.8171L26.4337 22.0152Z" fill="black"/>
<path d="M27.3223 27.8567V27.1462H33.6835V25.4302H19.1836V27.1462H25.5448V27.8567H19.1836V29.5727H31.906V30.2833H19.1836V34.4258H33.6835V32.7098H20.9611V31.9993H33.6835V30.8284V27.8567H27.3223Z" fill="black"/>
<path d="M119.999 0H86.7148V21.8348H119.999V0Z" fill="#E6002D"/>
<path d="M86.9188 7.20951C86.9612 7.2286 87.0121 7.22435 87.0482 7.24981C87.1203 7.25193 87.1203 7.23284 87.1373 7.17981C87.1691 7.18405 87.2073 7.1989 87.237 7.17981C87.3303 7.14587 87.3176 7.03557 87.3558 6.94224C87.3642 6.92103 87.3939 6.90406 87.4045 6.88285C87.4215 6.83831 87.4088 6.78952 87.4342 6.75347C87.4491 6.7471 87.4597 6.74074 87.4745 6.73438C87.4894 6.71528 87.4873 6.68347 87.5042 6.66438C87.5212 6.64741 87.553 6.64741 87.5721 6.63468C87.5891 6.61135 87.6039 6.59014 87.6209 6.56681C87.6294 6.56256 87.64 6.56044 87.6506 6.5562C87.6548 6.53923 87.6591 6.52226 87.6591 6.50742C87.6824 6.46499 87.7333 6.42681 87.7588 6.38863C87.7651 6.36954 87.7715 6.34833 87.7779 6.32924C87.8012 6.30803 87.8245 6.28894 87.8479 6.26985C87.9136 6.17864 87.9688 6.09168 88.0345 6.00471C88.0557 5.97502 88.0981 5.96017 88.1236 5.93471C88.183 5.9432 88.2615 5.97289 88.2912 6.0132C88.3039 6.03016 88.2954 6.0641 88.3103 6.08107C88.3251 6.09804 88.3654 6.09168 88.3803 6.11077C88.393 6.13198 88.3909 6.16592 88.41 6.18076C88.429 6.18501 88.4503 6.18713 88.4693 6.19137C88.499 6.21258 88.5118 6.26349 88.5478 6.28046C88.6009 6.30803 88.6581 6.2847 88.7154 6.31015C88.7599 6.33136 88.7769 6.39288 88.813 6.42045C88.8321 6.42469 88.8533 6.4353 88.8724 6.43954C88.8893 6.46075 88.8787 6.49893 88.8914 6.52014C88.953 6.61771 89.129 6.76831 89.2457 6.80649C89.3432 6.83831 89.4938 6.77256 89.5426 6.73862C89.5766 6.71529 89.5978 6.66226 89.6402 6.64953C89.6699 6.65377 89.6996 6.65801 89.7293 6.66014C89.8035 6.64529 89.8799 6.64105 89.9669 6.62196C90.2171 6.56044 90.5014 6.49045 90.7347 6.42469C90.775 6.42045 90.8153 6.41833 90.8535 6.41409C90.8874 6.40136 90.9277 6.35894 90.9617 6.34409C90.985 6.33985 91.0083 6.33773 91.0295 6.33348C91.0486 6.31864 91.0444 6.28046 91.0592 6.26561C91.0741 6.24864 91.1016 6.24652 91.1186 6.23591C91.1992 6.1744 91.2501 6.03441 91.265 5.90926C91.3922 5.87532 91.5216 5.79048 91.6298 5.73109C91.6616 5.72048 91.6956 5.712 91.7274 5.70139C91.7656 5.67594 91.7719 5.60806 91.8059 5.58261C91.8398 5.572 91.8716 5.56352 91.9034 5.55291C91.931 5.53382 92.1028 5.30899 92.1198 5.27505C92.1495 5.22202 92.1304 5.15414 92.1516 5.08839C92.2513 4.74053 92.0795 4.35024 91.9352 4.11904C91.9077 4.0745 91.8462 4.06177 91.8165 4.01935C91.5853 3.68633 91.178 3.51452 90.8429 3.28544C90.7305 3.20908 90.582 3.19635 90.4674 3.11787C90.442 3.1009 90.4399 3.05636 90.4186 3.03727C90.3868 3.01394 90.3402 3.01394 90.3105 2.98848C90.2002 2.89728 90.0899 2.80607 89.9753 2.72122C89.9478 2.69365 89.9223 2.6682 89.8947 2.64062C89.8247 2.60032 89.7653 2.57487 89.7081 2.52184C89.7017 2.50487 89.6953 2.49002 89.689 2.47093C89.6487 2.42851 89.5744 2.39033 89.5405 2.34367C89.532 2.31821 89.5214 2.29064 89.5108 2.26306C89.4832 2.22276 89.4217 2.19943 89.392 2.15701C89.356 2.10398 89.339 2.04459 89.3029 1.99792C89.2669 1.95126 89.2775 1.88763 89.252 1.82823C89.2054 1.71157 89.0823 1.56946 89.1333 1.36371C89.1545 1.27674 89.2117 1.21311 89.2414 1.14311C89.2499 1.10705 89.2563 1.071 89.2626 1.03494C89.2669 1.02433 89.3729 0.846157 89.3814 0.835552C89.4005 0.816462 89.4302 0.812219 89.4514 0.797372C89.532 0.735859 89.6147 0.646772 89.7166 0.608592C89.7738 0.58526 89.8396 0.600108 89.8841 0.589502C89.9117 0.583139 89.9435 0.555564 89.9647 0.549201C90.0623 0.517384 90.1387 0.536474 90.2405 0.511021C90.3147 0.491931 90.6371 0.411328 90.7326 0.441024C90.8195 0.47072 90.8959 0.540717 90.9786 0.578897C90.9765 0.651015 90.9447 0.687074 90.9595 0.75707C91.0126 1.001 91.1123 1.1516 91.2947 1.2619C91.3477 1.29159 91.441 1.2725 91.4834 1.31068C91.5025 1.34462 91.4771 1.40401 91.4919 1.45068C91.5153 1.52067 91.5747 1.53764 91.6298 1.57794C91.6998 1.57158 91.7507 1.52916 91.7868 1.48886C91.8334 1.49522 91.861 1.52067 91.8843 1.54825C91.9246 1.54825 91.9628 1.54825 92.0031 1.54825C92.018 1.54188 92.0222 1.5037 92.0328 1.48886C92.0583 1.45916 92.1049 1.4528 92.1304 1.42098C92.2089 1.4231 92.2152 1.45068 92.2577 1.46977C92.3255 1.49946 92.4167 1.49522 92.4952 1.51007C92.6649 1.34886 92.7688 1.21523 92.7222 0.894943C92.7222 0.803735 92.7222 0.710406 92.7222 0.619198C92.7137 0.589502 92.6734 0.570412 92.6649 0.540717C92.6373 0.45163 92.7095 0.351937 92.684 0.24376C92.6734 0.197096 92.6373 0.169521 92.6267 0.135583C92.6267 0.108009 92.6267 0.0825555 92.6267 0.0571021C92.6182 0.0380121 92.6034 0.0210432 92.5864 0.00195312H89.4641C89.4514 0.0125587 89.4366 0.0274065 89.4238 0.035891C89.4048 0.0507388 89.3751 0.0507388 89.356 0.0655866C89.3348 0.0825555 89.3199 0.120736 89.2966 0.133462C89.2117 0.18649 89.112 0.20558 89.0314 0.26285C89.0039 0.279819 88.9954 0.320121 88.972 0.341332C88.9402 0.373148 88.8872 0.379512 88.8533 0.411329C88.813 0.453751 88.8045 0.525869 88.7642 0.570412C88.743 0.591623 88.7112 0.602229 88.6942 0.629803C88.6602 0.687074 88.6666 0.754949 88.6348 0.818583C88.5266 1.03282 88.4078 1.39553 88.4757 1.67976C88.5054 1.7943 88.4715 1.87914 88.516 1.96611C88.5478 2.0255 88.6157 2.06792 88.6645 2.11458C88.7472 2.19519 88.8257 2.30336 88.8893 2.40094C88.9275 2.45608 88.9254 2.51335 88.9593 2.57911C89.0081 2.68092 89.0845 2.7594 89.146 2.84637C89.1608 2.86758 89.1587 2.89516 89.1736 2.91637C89.2223 2.97576 89.2923 3.01394 89.3517 3.06484C89.3729 3.08181 89.3772 3.12636 89.4005 3.14333C89.4302 3.16666 89.4684 3.17514 89.4875 3.20272C89.5214 3.24938 89.5426 3.31726 89.5872 3.3512C89.6105 3.36816 89.6487 3.36816 89.6657 3.38938C89.6911 3.42331 89.6954 3.46998 89.725 3.49967C89.7399 3.51452 89.7696 3.51452 89.7844 3.52937C89.8078 3.5527 89.8184 3.59724 89.8417 3.61846C89.8714 3.62906 89.9011 3.63967 89.9308 3.64815C89.9775 3.67785 90.0114 3.73724 90.0581 3.76693C90.092 3.78815 90.1238 3.77966 90.1662 3.79663C90.1874 3.80511 90.2087 3.83269 90.2256 3.84541C90.2893 3.88784 90.3614 3.90269 90.4229 3.94511C90.5205 4.0151 90.5841 4.13601 90.688 4.20176C90.6498 4.51357 90.4017 4.73416 90.1959 4.88476C90.1302 4.93355 90.0856 5.03536 90.0178 5.07354C89.952 5.1096 89.882 5.11384 89.8205 5.15414C89.6975 5.23263 89.5532 5.34292 89.3963 5.3811C89.2923 5.40656 89.252 5.33444 89.1502 5.35141C89.1417 5.35353 89.1163 5.36838 89.1099 5.3705C89.0314 5.38535 88.9296 5.34504 88.8363 5.35141C88.796 5.35777 88.7557 5.36413 88.7175 5.3705C88.709 5.36838 88.6857 5.34292 88.6772 5.3408C88.6009 5.31747 88.4545 5.33868 88.3909 5.35141C88.3866 5.34717 88.3845 5.34504 88.3803 5.3408C88.3866 5.19232 88.4672 5.0396 88.429 4.87628C88.323 4.416 88.3463 4.12964 87.8988 3.99601C87.8245 3.97268 87.7418 3.94511 87.6506 3.95571C87.6506 3.94511 87.6506 3.93662 87.6506 3.92602C87.6464 3.92602 87.6379 3.92602 87.6315 3.92602C87.6082 3.97692 87.5594 4.05116 87.5827 4.14449C87.5912 4.17631 87.6209 4.22934 87.6103 4.27176C87.6018 4.30994 87.5721 4.35873 87.5615 4.39054C87.5615 4.40751 87.5615 4.42448 87.5615 4.43933C87.5551 4.43933 87.5488 4.43933 87.5424 4.43933C87.5361 4.46266 87.5297 4.48599 87.5233 4.50932C87.517 4.50932 87.5106 4.50932 87.5042 4.50932C87.5042 4.51145 87.5212 4.55811 87.5127 4.57932C87.5085 4.59205 87.4788 4.61326 87.4745 4.62811C87.447 4.70235 87.4491 4.74689 87.4151 4.80628C87.3579 4.90385 87.2603 4.99082 87.1988 5.08415C87.1755 5.12021 87.1755 5.15839 87.15 5.19232C87.1182 5.23687 87.0588 5.27293 87.0334 5.32171C87.01 5.36201 86.9994 5.40231 86.9634 5.42989C86.8912 5.4808 86.7958 5.5317 86.7109 5.57837V6.98042C86.7194 7.01648 86.7279 7.05254 86.747 7.08012C86.7788 7.12042 86.8721 7.18829 86.9188 7.20951Z" fill="white"/>
<path d="M114.727 0.727375C114.71 0.799493 114.663 0.858884 114.638 0.924639C114.608 1.00736 114.616 1.071 114.589 1.1622C114.57 1.22796 114.521 1.30008 114.5 1.37007C114.46 1.49734 114.428 1.63733 114.392 1.7646C114.381 1.80702 114.396 1.85581 114.411 1.87278C114.404 1.94914 114.353 1.9449 114.332 2.00004C114.3 2.08489 114.315 2.1867 114.283 2.27791C114.273 2.30549 114.241 2.33094 114.235 2.35851C114.23 2.4179 114.228 2.4773 114.226 2.53669C114.158 2.77637 114.09 3.03303 114.029 3.29817C114.006 3.39574 114.008 3.48907 113.991 3.57603C113.991 3.62482 113.991 3.67573 113.991 3.72451C113.97 3.78178 113.919 3.87299 113.902 3.93238C113.883 3.99814 113.917 4.04692 113.891 4.12116C113.87 4.18479 113.821 4.25903 113.802 4.32903C113.783 4.39903 113.813 4.47751 113.802 4.5369C113.798 4.56447 113.77 4.60053 113.764 4.62599C113.764 4.65992 113.764 4.69174 113.764 4.72568C113.743 4.81477 113.719 4.9887 113.675 5.06081C113.677 5.16051 113.643 5.13293 113.586 5.16899C113.547 5.22838 113.569 5.31959 113.547 5.39595C113.535 5.43837 113.503 5.51898 113.477 5.55716C113.458 5.58473 113.407 5.62079 113.401 5.65473C113.382 5.71624 113.53 5.87744 113.547 5.93259C113.575 6.01532 113.537 6.07683 113.558 6.14046C113.577 6.2041 113.581 6.3653 113.567 6.42681C113.562 6.4459 113.547 6.50317 113.558 6.53711C113.579 6.61771 113.62 6.81074 113.666 6.87437C113.69 6.89346 113.713 6.91467 113.736 6.93376C113.755 6.96346 113.755 6.99527 113.774 7.02285C113.817 7.08648 114.023 7.23284 114.148 7.20102C114.192 7.19042 114.241 7.15648 114.277 7.14163C114.33 7.12042 114.385 7.10557 114.415 7.06103C114.491 6.95497 114.468 6.79589 114.504 6.64529C114.51 6.61983 114.536 6.54772 114.534 6.51802C114.525 6.44802 114.477 6.32924 114.504 6.22107C114.542 6.06198 114.566 5.90078 114.604 5.73745C114.606 5.66745 114.608 5.59958 114.612 5.52958C114.606 5.50837 114.58 5.4808 114.593 5.44049C114.597 5.4214 114.625 5.38747 114.631 5.36201C114.646 5.30899 114.631 5.26868 114.65 5.22414C114.663 5.19444 114.697 5.16263 114.71 5.12657C114.716 5.08627 114.723 5.04809 114.729 5.00567C114.74 4.98021 114.769 4.9484 114.78 4.9187C114.801 4.84446 114.763 4.75749 114.78 4.69174C114.784 4.67053 114.812 4.64083 114.818 4.62174C114.818 4.57932 114.818 4.53478 114.818 4.49236C114.831 4.44781 114.831 4.3863 114.848 4.32479C114.901 4.13813 114.996 3.92602 115.034 3.74148C115.03 3.70542 115.028 3.66936 115.024 3.6333C115.066 3.44028 115.062 3.23029 115.121 3.05C115.138 3.00333 115.187 2.97152 115.202 2.93121C115.204 2.88031 115.208 2.83152 115.213 2.78274C115.238 2.71274 115.287 2.63002 115.31 2.56426C115.338 2.48578 115.323 2.42215 115.35 2.35427C115.374 2.297 115.427 2.21003 115.448 2.1464C115.484 2.04247 115.509 1.93853 115.537 1.84096C115.541 1.80066 115.543 1.76248 115.548 1.72218C115.567 1.66915 115.633 1.62461 115.656 1.5737C115.686 1.50795 115.681 1.44219 115.715 1.37644C115.734 1.3425 115.781 1.30432 115.794 1.26614C115.813 1.21735 115.802 1.13887 115.815 1.08796C115.836 0.996756 115.821 0.827067 115.806 0.750707C115.809 0.708285 115.811 0.665862 115.815 0.621319C115.819 0.555564 115.796 0.530111 115.785 0.491931C115.779 0.421934 115.773 0.354058 115.766 0.284062C115.722 0.182248 115.652 0.0846766 115.571 0.00195312H114.807C114.78 0.161037 114.765 0.328605 114.731 0.462235C114.703 0.559807 114.748 0.640409 114.727 0.727375Z" fill="white"/>
<path d="M112.048 1.6075C112.033 1.57992 111.994 1.54811 111.98 1.52053C111.952 1.47387 111.965 1.41872 111.939 1.36357C111.901 1.27661 111.717 1.08995 111.636 1.0454C111.579 1.01359 111.53 1.02843 111.458 1.0051C111.413 0.992376 111.358 0.945711 111.32 0.916016C111.286 0.916016 111.271 0.920258 111.252 0.935106C111.208 0.964801 111.225 0.986012 111.201 1.04328C111.191 1.07086 111.152 1.09843 111.142 1.12176C111.125 1.17055 111.165 1.23206 111.174 1.26176C111.169 1.35084 111.165 1.43993 111.163 1.52902C111.157 1.55023 111.129 1.57992 111.123 1.59901C111.127 1.62871 111.129 1.65841 111.133 1.6881C111.123 1.74749 111.072 1.8281 111.055 1.88537C111.048 1.949 111.04 2.01263 111.036 2.07414C111.012 2.1505 110.962 2.23959 110.938 2.31171C110.913 2.39231 110.93 2.52382 110.898 2.59806C110.892 2.61079 110.866 2.63412 110.858 2.64897C110.826 2.71048 110.798 2.79957 110.779 2.86744C110.775 2.92047 110.773 2.9735 110.768 3.02653C110.762 3.04774 110.726 3.07107 110.72 3.09652C110.72 3.14319 110.72 3.18773 110.72 3.2344C110.673 3.40196 110.58 3.56529 110.531 3.73922C110.527 3.80498 110.527 3.87073 110.522 3.93861C110.501 4.02557 110.497 4.1486 110.463 4.23344C110.446 4.27586 110.399 4.3098 110.385 4.35222C110.38 4.38192 110.378 4.41161 110.376 4.44131C110.361 4.46676 110.192 4.67463 110.168 4.68948C110.115 4.71918 110.075 4.71281 110.009 4.73827C110.005 4.74039 109.875 4.88887 109.871 4.89735C109.818 4.99492 109.929 5.07552 109.882 5.17309C109.846 5.20915 109.81 5.24521 109.774 5.28127C109.765 5.31521 109.755 5.34915 109.744 5.38096C109.721 5.4149 109.659 5.42339 109.636 5.45945C109.608 5.50187 109.623 5.56126 109.595 5.59732C109.568 5.63126 109.502 5.63126 109.466 5.65671C109.447 5.68004 109.426 5.70125 109.407 5.72671C109.332 5.77761 109.258 5.79882 109.169 5.83488C109.144 5.84549 109.112 5.88367 109.091 5.89427C109.042 5.8964 108.991 5.90064 108.942 5.90276C108.83 5.93882 108.575 5.95367 108.429 5.92185C108.38 5.92185 108.331 5.92185 108.283 5.92185C108.221 5.907 108.16 5.87094 108.104 5.85185C108.043 5.83064 107.986 5.84125 107.937 5.81155C107.89 5.78186 107.856 5.73307 107.799 5.71186C107.793 5.63762 107.765 5.55277 107.78 5.4552C107.784 5.42551 107.801 5.36187 107.788 5.31733C107.776 5.26006 107.735 5.15613 107.759 5.07977C107.761 5.07128 107.786 5.04795 107.788 5.03946C107.788 5.00977 107.788 4.98007 107.788 4.95038C107.807 4.89947 107.867 4.8422 107.888 4.7722C107.905 4.71281 107.856 4.62373 107.877 4.56433C107.886 4.53888 107.924 4.49222 107.935 4.46464C107.969 4.38404 107.962 4.30344 107.994 4.21859C108 4.20162 108.026 4.17617 108.034 4.1592C108.049 4.06799 108.062 3.97891 108.073 3.88982C108.098 3.81346 108.145 3.70528 108.17 3.62256C108.17 3.59286 108.17 3.56317 108.17 3.53347C108.185 3.49317 108.227 3.45711 108.24 3.41469C108.244 3.37227 108.246 3.32985 108.249 3.28742C108.266 3.27045 108.28 3.25349 108.297 3.23864C108.304 3.19409 108.312 3.15167 108.316 3.10925C108.344 3.05622 108.414 3.03077 108.446 2.95229C108.45 2.92259 108.452 2.8929 108.454 2.8632C108.48 2.77836 108.522 2.67018 108.543 2.57685C108.565 2.48352 108.503 2.29898 108.543 2.23111C108.552 2.14626 108.683 1.99778 108.719 1.90446C108.724 1.86203 108.726 1.81749 108.73 1.77507C108.809 1.4272 108.471 1.29782 108.257 1.20237C108.208 1.18116 108.151 1.18116 108.109 1.15358C107.924 1.15146 107.907 1.41236 107.873 1.56083C107.873 1.60538 107.873 1.65204 107.873 1.69871C107.846 1.80052 107.771 1.91294 107.716 1.99566C107.703 2.00839 107.691 2.02112 107.676 2.03384C107.638 2.12929 107.638 2.21626 107.597 2.31171C107.517 2.50685 107.432 2.68927 107.362 2.90562C107.351 2.93956 107.313 2.95865 107.303 2.98622C107.279 3.04137 107.309 3.10501 107.283 3.15379C107.267 3.18773 107.218 3.22803 107.203 3.26409C107.203 3.28318 107.203 3.30439 107.203 3.32348C107.186 3.38287 107.152 3.45075 107.135 3.50166C107.131 3.52923 107.129 3.55468 107.127 3.58014C107.11 3.6162 107.063 3.66074 107.046 3.69892C107.042 3.73286 107.04 3.76467 107.037 3.79861C107.027 3.83467 106.997 3.88558 106.989 3.91527C106.989 3.94285 106.989 3.9683 106.989 3.99375C106.978 4.03406 106.942 4.0786 106.931 4.11254C106.927 4.1592 106.923 4.20375 106.921 4.25041C106.917 4.2695 106.895 4.3098 106.891 4.32889C106.895 4.36495 106.897 4.40101 106.9 4.43707C106.878 4.541 106.817 4.6916 106.853 4.84432C106.891 5.01825 106.902 5.19855 106.94 5.37884C106.944 5.45096 106.946 5.5252 106.948 5.59732C106.959 5.60792 106.967 5.61641 106.978 5.62701C106.978 5.66519 106.978 5.70762 106.978 5.7458C107.006 5.84125 107.069 5.9473 107.105 6.03215C107.118 6.06184 107.11 6.08517 107.127 6.11275C107.182 6.16578 107.237 6.2188 107.294 6.26971C107.322 6.29941 107.347 6.3291 107.373 6.3588C107.483 6.42455 107.636 6.42243 107.748 6.48819C107.822 6.53061 107.892 6.6197 107.975 6.65575C108.051 6.68969 108.136 6.70878 108.21 6.72575C108.259 6.72999 108.31 6.73212 108.359 6.73636C108.465 6.76817 108.554 6.80848 108.664 6.83393C108.719 6.84878 108.836 6.83817 108.862 6.83393C108.968 6.83393 109.072 6.83393 109.178 6.83393C109.275 6.81272 109.4 6.78939 109.494 6.76605C109.606 6.73636 109.702 6.77454 109.808 6.74696C109.888 6.72575 109.994 6.69818 110.064 6.65788C110.075 6.64303 110.09 6.62606 110.102 6.60909C110.139 6.58576 110.2 6.58576 110.221 6.5497C110.221 6.53697 110.221 6.52425 110.221 6.5094C110.24 6.47334 110.291 6.45425 110.308 6.40971C110.321 6.38213 110.312 6.35456 110.329 6.33122C110.351 6.29729 110.406 6.2782 110.416 6.23153C110.423 6.21456 110.418 6.07245 110.408 6.04275C110.404 6.03003 110.372 6.00669 110.37 5.99185C110.365 5.9367 110.363 5.87943 110.359 5.82428C110.351 5.80307 110.317 5.79458 110.31 5.76489C110.283 5.66944 110.348 5.62701 110.359 5.5655C110.353 5.51035 110.346 5.45308 110.34 5.39793C110.478 5.40642 110.499 5.50187 110.597 5.53793C110.701 5.57823 111.048 5.55914 111.127 5.50823C111.184 5.47217 111.191 5.41914 111.225 5.35763C111.248 5.31733 111.314 5.28339 111.333 5.23885C111.337 5.20915 111.339 5.17946 111.341 5.15188C111.35 5.12855 111.384 5.10522 111.39 5.08189C111.394 5.03522 111.396 4.98856 111.401 4.94401C111.405 4.92492 111.424 4.8825 111.43 4.86553C111.426 4.81251 111.424 4.75948 111.42 4.70645C111.43 4.66191 111.456 4.59403 111.468 4.54737C111.488 4.47737 111.466 4.42646 111.488 4.36919C111.519 4.29071 111.587 4.2292 111.615 4.15072C111.649 4.05527 111.655 3.94709 111.674 3.85376C111.674 3.8177 111.674 3.78164 111.674 3.74558C111.702 3.64801 111.757 3.54196 111.782 3.44863C111.816 3.32985 111.774 3.19197 111.81 3.08167C111.825 3.04137 111.876 3.00531 111.888 2.96289C111.888 2.86956 111.888 2.77836 111.888 2.68715C111.918 2.58109 112.043 2.30323 112.026 2.21202C112.005 2.02748 112.137 1.78567 112.048 1.6075Z" fill="white"/>
<path d="M97.745 6.17865C97.7747 6.13623 97.7705 6.10865 97.8235 6.08956C97.8362 5.97714 97.7811 5.82654 97.7047 5.77139C97.6771 5.75018 97.6474 5.75018 97.6262 5.72261C97.5902 5.67382 97.5647 5.62292 97.499 5.60383C97.4671 5.58261 97.429 5.5911 97.3802 5.58261C97.1765 5.54656 97.0578 5.72473 96.9093 5.77139C96.8923 5.77139 96.8775 5.77139 96.8605 5.77139C96.8372 5.77988 96.799 5.81594 96.7735 5.82018C96.7438 5.81382 96.7141 5.80745 96.6844 5.80109C96.6505 5.80957 96.642 5.85624 96.6166 5.87109C96.5635 5.87745 96.5105 5.88593 96.4575 5.8923C96.4405 5.89866 96.4023 5.92411 96.379 5.93048C96.3345 5.94108 96.3175 5.91351 96.2602 5.93048C96.222 5.94108 96.1754 5.96866 96.1308 5.97926C96.0205 6.00684 95.9357 5.98351 95.8254 6.00896C95.6875 6.04078 95.5284 6.04714 95.4012 6.03865C95.346 6.03865 95.2909 6.03865 95.2336 6.03865C95.1763 6.02381 95.1085 5.98775 95.0554 5.97078C95.0173 5.96229 94.9769 5.95593 94.9388 5.94957C94.8921 5.92411 94.837 5.87533 94.7818 5.84988C94.7351 5.82866 94.6991 5.83291 94.6524 5.80957C94.6248 5.79685 94.5951 5.76079 94.5633 5.75018C94.5294 5.73746 94.5103 5.75018 94.4848 5.73109C94.4424 5.69715 94.3661 5.5911 94.3364 5.54443C94.3173 5.51474 94.3173 5.4808 94.2982 5.45535C94.2643 5.41505 94.2091 5.3705 94.1794 5.32596C94.1709 5.29414 94.1603 5.26021 94.1497 5.22839C94.1179 5.16475 94.05 5.13718 94.0309 5.06082C94.0118 4.98658 94.0564 4.88053 94.0691 4.82326C94.0691 4.77871 94.0691 4.72993 94.0691 4.68538C94.0776 4.66205 94.1094 4.64296 94.1179 4.61539C94.1412 4.54115 94.12 4.45842 94.1476 4.38843C94.1646 4.37146 94.1794 4.35661 94.1964 4.33964C94.2197 4.3057 94.2176 4.27177 94.2346 4.22934C94.2452 4.20813 94.2749 4.18268 94.2833 4.16147C94.2982 4.06814 94.3109 3.97481 94.3236 3.8836C94.3321 3.85603 94.3639 3.83694 94.3724 3.8136C94.3724 3.78603 94.3724 3.76058 94.3724 3.73512C94.3958 3.71179 94.4191 3.69058 94.4403 3.66513C94.47 3.62058 94.47 3.57816 94.5209 3.55483C94.5294 3.54846 94.523 3.55271 94.54 3.54422C94.663 3.77542 94.8476 3.81785 95.1106 3.90057C95.1827 3.9239 95.2548 3.87724 95.329 3.90057C95.3694 3.91754 95.3969 3.94936 95.4266 3.97057C95.5157 4.02996 95.6387 4.09147 95.7512 4.11904C95.8402 4.12117 95.9293 4.12541 96.0163 4.12965C96.1266 4.1551 96.2751 4.15298 96.3917 4.11904C96.4193 4.11268 96.449 4.07662 96.4723 4.07026C96.5402 4.07662 96.6102 4.08511 96.6781 4.08935C96.7014 4.08299 96.7587 4.06602 96.7863 4.05965C96.8478 4.04481 96.9496 4.07874 96.9941 4.07026C97.0365 4.06177 97.0726 4.01299 97.1129 4.00026C97.2084 3.97269 97.2868 4.02784 97.3696 4.00026C97.4014 3.98966 97.4353 3.9536 97.4671 3.94087C97.5329 3.9133 97.5944 3.91754 97.6644 3.89209C97.7047 3.87936 97.7492 3.84542 97.7917 3.83269C97.8511 3.81573 97.8956 3.82633 97.9508 3.803C98.0653 3.75846 98.1883 3.6927 98.305 3.65452C98.3686 3.64391 98.4301 3.63543 98.4916 3.62482C98.5383 3.60573 98.5913 3.55695 98.6401 3.53574C98.6995 3.51028 98.7631 3.52725 98.8268 3.50604C98.8756 3.48907 98.9222 3.45089 98.9752 3.43605C99.0283 3.43392 99.0813 3.4318 99.1322 3.42756C99.1492 3.41271 99.164 3.39362 99.181 3.37665C99.251 3.32999 99.3528 3.32787 99.4058 3.26848C99.4101 3.26848 99.4122 3.26848 99.4164 3.26848C99.461 3.20909 99.531 3.02031 99.5543 2.94183C99.5776 2.8591 99.5586 2.80183 99.584 2.72547C99.601 2.67456 99.6498 2.55154 99.6243 2.4667C99.6116 2.43064 99.5755 2.41367 99.5543 2.38821C99.5373 2.367 99.5564 2.33519 99.5458 2.30761C99.5267 2.26943 99.4695 2.27155 99.4376 2.24822C99.4186 2.23337 99.4228 2.20792 99.408 2.18883C99.3867 2.16125 99.338 2.15277 99.3104 2.12944C99.2871 2.10398 99.2637 2.07641 99.2404 2.04884C99.1958 2.02126 99.1237 2.02762 99.0834 1.99793C99.0007 1.96399 99.0049 1.85157 98.9562 1.78157C98.901 1.70097 98.8183 1.68825 98.7504 1.63098C98.7101 1.59916 98.7165 1.55462 98.6931 1.50371C98.6634 1.44856 98.585 1.40826 98.5341 1.37432C98.5256 1.28523 98.515 1.21736 98.4747 1.14736C98.4025 1.13039 98.3241 1.09645 98.2477 1.07949C98.1417 1.05191 97.9974 1.12615 97.8935 1.07949C97.8638 1.04979 97.8341 1.02009 97.8044 0.990399C97.7747 0.984035 97.745 0.977672 97.7174 0.971309C97.7111 0.960703 97.7026 0.950098 97.6962 0.941613C97.5838 0.884343 97.3632 0.890706 97.2338 0.852526C97.1702 0.833436 97.1341 0.882222 97.0959 0.890706C97.0111 0.894948 96.9241 0.899191 96.8393 0.901312C96.8032 0.909796 96.7608 0.920402 96.7035 0.920402C96.6738 0.899191 96.6441 0.875858 96.6144 0.850405C96.5869 0.812225 96.5911 0.761318 96.5635 0.723138C96.5169 0.644657 96.4066 0.59375 96.2772 0.59375C96.2157 0.634051 96.1202 0.610719 96.0502 0.642536C95.9463 0.693442 95.8784 0.761318 95.7936 0.812225C95.7596 0.831315 95.7257 0.831315 95.696 0.850405C95.6515 0.880101 95.6196 0.941613 95.5772 0.971309C95.5454 0.99252 95.5009 0.988278 95.469 1.00949C95.4393 1.04555 95.4097 1.08373 95.38 1.11767C95.3121 1.16433 95.24 1.1813 95.1742 1.22796C95.1148 1.26826 95.0809 1.34463 95.0257 1.38705C94.9706 1.42735 94.9176 1.44644 94.8582 1.48462C94.7648 1.54613 94.6694 1.65219 94.6015 1.74127C94.5888 1.75824 94.5697 1.75824 94.5527 1.77097C94.5082 1.80491 94.4318 1.89399 94.3936 1.93854C94.3236 2.0255 94.26 2.14641 94.2155 2.25458C94.207 2.30125 94.1964 2.34791 94.1858 2.39458C94.1667 2.42003 94.1243 2.42215 94.1073 2.45397C94.0521 2.56215 94.0288 2.71911 93.9694 2.82092C93.9291 2.8888 93.8697 2.95243 93.8315 3.01819C93.8125 3.08394 93.7912 3.14969 93.7722 3.21545C93.7615 3.24514 93.7255 3.2706 93.7149 3.29605C93.6746 3.37878 93.6725 3.45089 93.6343 3.5421C93.6216 3.57604 93.5876 3.62907 93.577 3.66088C93.5431 3.76482 93.5643 3.87087 93.5261 3.96845C93.5091 4.01299 93.4646 4.06602 93.4476 4.11692C93.42 4.20813 93.4413 4.28025 93.4179 4.37358C93.4094 4.40964 93.3755 4.46267 93.3691 4.49236C93.3755 4.53478 93.3819 4.57721 93.3882 4.61963C93.3691 4.70447 93.3585 4.89325 93.3882 4.99507C93.4031 5.05234 93.4497 5.10112 93.4773 5.14567C93.4964 5.17748 93.49 5.2093 93.507 5.24324C93.524 5.28354 93.5643 5.3196 93.5876 5.35353C93.6216 5.40656 93.6131 5.48504 93.647 5.53171C93.6597 5.54868 93.6788 5.54868 93.6958 5.5614C93.7361 5.5911 93.8634 5.72897 93.8931 5.76927C93.927 5.81594 93.9291 5.87745 93.9609 5.92836C94.0012 5.98775 94.0776 6.01108 94.12 6.06623C94.1455 6.10017 94.1582 6.15319 94.1879 6.18501C94.2155 6.21259 94.2579 6.21895 94.2855 6.2444C94.3067 6.26774 94.3258 6.28895 94.3449 6.3144C94.3852 6.33773 94.417 6.32501 94.4636 6.3441C94.5039 6.35894 94.5336 6.39712 94.5824 6.41409C94.6227 6.41621 94.6609 6.41833 94.7012 6.42258C94.7245 6.43106 94.7627 6.46076 94.7882 6.47348C94.8285 6.49045 94.8688 6.48409 94.9048 6.50318C94.9345 6.51803 94.96 6.55833 94.9939 6.57318C95.0215 6.58378 95.0512 6.5753 95.0745 6.59227C95.1063 6.6156 95.1403 6.64954 95.1827 6.66226C95.2463 6.68347 95.3291 6.68772 95.38 6.70256C95.4457 6.70256 95.5115 6.70256 95.5772 6.70256C95.836 6.76196 96.203 6.73438 96.4342 6.68347C96.4808 6.68347 96.5275 6.68347 96.572 6.68347C96.8987 6.60075 97.2381 6.52015 97.5096 6.37591C97.5647 6.34834 97.7089 6.23168 97.745 6.17865ZM94.9176 2.72759C94.9176 2.68093 94.9176 2.63426 94.9176 2.5876C94.9451 2.56002 94.9706 2.53457 94.996 2.507C95.0257 2.44548 94.9769 2.40943 95.0066 2.35852C95.0236 2.33519 95.1636 2.17398 95.1848 2.16125C95.2145 2.14004 95.2591 2.14641 95.2824 2.12095C95.3481 2.04459 95.3715 1.93217 95.4584 1.88339C95.4987 1.87703 95.5369 1.87066 95.5751 1.8643C95.6196 1.84733 95.7002 1.81551 95.7427 1.78582C95.7999 1.74339 95.819 1.66067 95.8699 1.61613C95.906 1.58643 95.9527 1.56946 95.9887 1.53765C96.046 1.48674 96.082 1.4125 96.1372 1.36159C96.1775 1.31917 96.2475 1.31493 96.2942 1.28099C96.3726 1.28099 96.4511 1.28099 96.5317 1.28099C96.6929 1.32129 96.8329 1.41674 96.9835 1.46977C97.0196 1.47189 97.0556 1.47826 97.0917 1.48038C97.1235 1.49098 97.1575 1.5334 97.1893 1.54825C97.2741 1.59067 97.359 1.60764 97.4353 1.65643C97.4883 1.69037 97.6305 1.84945 97.6708 1.9046C97.7111 1.95551 97.7811 1.95763 97.8277 2.00217C97.8765 2.04671 97.938 2.25883 97.8871 2.33094C97.8935 2.35428 97.8977 2.35216 97.9062 2.36912C97.9444 2.37125 98.0017 2.37549 98.025 2.36064C98.0844 2.367 98.0738 2.38821 98.1035 2.42003C98.1014 2.51336 98.0865 2.62578 98.0441 2.68729C98.0186 2.73608 97.9211 2.77426 97.8574 2.78486C97.8341 2.78062 97.8129 2.7785 97.7874 2.77638C97.6389 2.8082 97.4905 2.8888 97.3547 2.93334C97.3187 2.93334 97.2826 2.93334 97.2465 2.93334C97.1893 2.94819 97.1575 3.00546 97.1002 3.02243C97.0387 3.02031 96.9814 3.01606 96.922 3.01182C96.7629 3.06273 96.5529 3.12848 96.3811 3.17091C96.2517 3.20272 96.1266 3.13697 95.9972 3.17091C95.8381 3.20909 95.643 3.17727 95.4648 3.19C95.3694 3.19636 95.2909 3.24514 95.1891 3.21757C95.1021 3.19848 94.9854 3.15182 94.8921 3.12848C94.8242 3.11151 94.7542 3.13273 94.7054 3.10091C94.6991 3.10091 94.6927 3.10091 94.6864 3.10091C94.7012 2.93334 94.873 2.86122 94.9176 2.72759Z" fill="white"/>
<path d="M100.315 5.82224C100.354 5.86679 100.339 5.9283 100.396 5.97284C100.426 5.99405 100.462 6.00254 100.485 6.03011C100.53 6.09162 100.559 6.15102 100.604 6.20829C100.64 6.25919 100.708 6.29313 100.75 6.33555C100.78 6.36737 100.81 6.40131 100.839 6.43312C100.937 6.50524 101.047 6.52857 101.166 6.5816C101.177 6.58584 101.2 6.61554 101.215 6.6219C101.276 6.64099 101.361 6.63039 101.412 6.6219C101.457 6.61554 101.618 6.6516 101.66 6.6622C101.715 6.6622 101.77 6.6622 101.828 6.6622C101.951 6.69614 102.146 6.69614 102.282 6.7216C102.324 6.71523 102.367 6.70887 102.411 6.70251C102.502 6.71311 102.644 6.73856 102.757 6.71311C102.835 6.68978 102.914 6.66645 102.992 6.64311C103.054 6.64099 103.117 6.63887 103.179 6.63463C103.247 6.61766 103.31 6.58372 103.376 6.56675C103.431 6.56039 103.489 6.55403 103.544 6.54766C103.643 6.49888 103.73 6.41403 103.819 6.3504C103.83 6.34192 103.834 6.31858 103.849 6.3101C103.875 6.30798 103.902 6.30374 103.928 6.30161C103.981 6.28252 104.046 6.25919 104.106 6.23162C104.167 6.20404 104.212 6.13405 104.273 6.11284C104.293 6.11284 104.314 6.11284 104.333 6.11284C104.356 6.08314 104.379 6.05344 104.403 6.02375C104.43 6.01314 104.456 6.00466 104.481 5.99193C104.536 5.95587 104.579 5.888 104.619 5.83497C104.655 5.78618 104.708 5.76285 104.757 5.72679C104.802 5.69285 104.812 5.64195 104.846 5.5974C104.878 5.55498 104.952 5.55286 105.003 5.52741C105.003 5.52529 105.003 5.52104 105.003 5.51892C105.05 5.49347 105.048 5.45741 105.082 5.42984C105.118 5.40226 105.154 5.40438 105.181 5.37045C105.266 5.25803 105.294 5.10106 105.379 4.9844C105.412 4.93774 105.487 4.91016 105.516 4.85501C105.54 4.81047 105.535 4.77017 105.555 4.72775C105.586 4.65775 105.656 4.58563 105.671 4.50079C105.682 4.44352 105.654 4.25898 105.652 4.19323C105.65 4.16565 105.684 4.10626 105.692 4.07444C105.728 3.9196 105.618 3.78385 105.544 3.72658C105.548 3.64598 105.61 3.61628 105.593 3.52932C105.569 3.40417 105.535 3.30236 105.474 3.21327C105.451 3.18994 105.429 3.16661 105.406 3.14327C105.406 3.10085 105.406 3.05843 105.406 3.01389C105.391 2.97146 105.349 2.93965 105.336 2.8845C105.389 2.85692 105.502 2.73602 105.533 2.68723C105.563 2.63845 105.565 2.57694 105.603 2.53876C105.599 2.45815 105.463 2.24604 105.406 2.22059C105.315 2.18453 105.19 2.20998 105.092 2.18241C104.978 2.14847 104.704 1.96181 104.539 2.00211C104.502 2.01272 104.46 2.04878 104.43 2.06363C104.358 2.09544 104.341 2.10817 104.269 2.13574C104.239 2.14423 104.214 2.18877 104.184 2.19726C104.142 2.20362 104.063 2.20998 104.021 2.21635C104 2.22483 103.932 2.22483 103.909 2.23119C103.868 2.2418 103.565 2.15059 103.533 2.1315C103.537 2.10605 103.54 2.09756 103.544 2.08059C103.677 2.07847 103.813 2.07423 103.947 2.06999C103.991 2.08059 104.076 2.08908 104.125 2.06999C104.189 2.04666 104.229 1.97454 104.292 1.95333C104.305 1.89182 104.273 1.82394 104.292 1.75606C104.312 1.69243 104.403 1.64577 104.382 1.54819C104.335 1.35093 104.153 1.30851 103.957 1.26184C103.915 1.26184 103.873 1.26184 103.83 1.26184C103.792 1.247 103.76 1.2173 103.701 1.21094C103.605 1.27457 103.378 1.24063 103.257 1.28093C103.134 1.31911 102.975 1.37426 102.852 1.42093C102.797 1.43365 102.742 1.44638 102.685 1.45911C102.577 1.50365 102.453 1.5885 102.339 1.62668C102.256 1.65425 102.12 1.67122 102.034 1.72637C101.832 1.85151 101.618 1.96818 101.423 2.10181C101.38 2.12938 101.38 2.2015 101.344 2.23119C101.308 2.25665 101.261 2.25453 101.225 2.27998C101.225 2.28634 101.225 2.29271 101.225 2.30119C101.153 2.35634 101.079 2.40513 101.017 2.46876C101.009 2.49633 100.998 2.52179 100.988 2.54936C100.958 2.58542 100.875 2.57906 100.85 2.61724C100.776 2.72966 100.725 2.84844 100.653 2.96298C100.595 3.05631 100.504 3.13903 100.445 3.23024C100.364 3.35326 100.328 3.49326 100.267 3.63749C100.25 3.67992 100.203 3.73294 100.188 3.77537C100.19 3.81567 100.192 3.85597 100.197 3.89415C100.18 3.93657 100.125 3.99172 100.108 4.03202C100.103 4.08929 100.101 4.14656 100.099 4.20171C100.095 4.21232 100.071 4.24625 100.069 4.2611C100.069 4.30989 100.069 4.36079 100.069 4.40958C99.9463 4.81471 99.9972 5.41923 100.218 5.74588C100.239 5.7777 100.288 5.79255 100.315 5.82224ZM100.759 4.8635C100.774 4.80835 100.812 4.73835 100.829 4.67472C100.858 4.56018 100.822 4.43079 100.869 4.32898C100.899 4.2611 100.918 4.1911 100.937 4.12111C100.943 4.07444 100.952 4.02778 100.956 3.98324C100.967 3.97687 100.977 3.97051 100.986 3.96415C101.013 3.92172 101.026 3.87506 101.056 3.83476C101.085 3.8093 101.115 3.78385 101.143 3.75416C101.183 3.69688 101.187 3.63325 101.221 3.5675C101.247 3.51871 101.3 3.50811 101.329 3.4678C101.391 3.3872 101.416 3.28539 101.478 3.20054C101.518 3.14539 101.59 3.11358 101.645 3.07116C101.694 3.0351 101.792 2.8845 101.832 2.86329C101.857 2.85904 101.885 2.8548 101.91 2.85268C102.002 2.81662 102.084 2.74026 102.176 2.70632C102.203 2.70208 102.229 2.69996 102.254 2.69572C102.271 2.68087 102.288 2.6639 102.305 2.64693C102.373 2.60239 102.441 2.55997 102.521 2.52815C102.568 2.50906 102.615 2.52603 102.668 2.50694C102.685 2.50058 102.704 2.47512 102.719 2.46664C102.829 2.40937 102.943 2.3627 103.043 2.29907C103.096 2.26513 103.166 2.26089 103.211 2.22059C103.23 2.22483 103.23 2.22483 103.24 2.23119C103.3 2.26089 103.433 2.56845 103.486 2.64693C103.535 2.71693 103.614 2.76359 103.684 2.81662C103.735 2.8548 103.779 2.91631 103.832 2.95449C103.873 2.98207 103.896 2.97995 103.921 3.02237C103.989 3.02025 104.051 2.97995 104.089 2.94389C104.104 2.94389 104.114 2.94389 104.129 2.94389C104.108 3.06691 104.203 3.13267 104.178 3.23024C104.169 3.2663 104.14 3.30872 104.129 3.34902C104.099 3.46993 104.146 3.58447 104.11 3.69476C104.097 3.73506 104.063 3.77325 104.051 3.82415C104.059 3.89203 104.066 3.96415 104.07 4.03202C104.049 4.14232 104.036 4.24413 104.013 4.35019C104.013 4.39685 104.013 4.44352 104.013 4.48806C104 4.54321 103.993 4.62381 103.972 4.68532C103.962 4.71502 103.928 4.74047 103.913 4.76381C103.887 4.82532 103.866 4.88895 103.843 4.95046C103.83 4.96743 103.796 4.97168 103.783 4.99077C103.762 5.02258 103.752 5.06076 103.726 5.09046C103.709 5.10106 103.694 5.11167 103.677 5.12015C103.643 5.16045 103.629 5.20924 103.588 5.23894C103.571 5.25378 103.546 5.25378 103.529 5.26863C103.52 5.27712 103.523 5.30045 103.51 5.30893C103.472 5.33651 103.414 5.32802 103.383 5.35772C103.37 5.37044 103.37 5.39802 103.353 5.40863C103.291 5.44468 103.217 5.44256 103.156 5.4765C103.026 5.54862 102.882 5.64619 102.742 5.70558C102.683 5.71407 102.623 5.72467 102.566 5.73528C102.526 5.75225 102.462 5.7883 102.428 5.80527C102.369 5.83285 102.313 5.818 102.26 5.84345C102.229 5.86254 102.199 5.89648 102.171 5.90284C102.067 5.90072 101.961 5.89648 101.857 5.89436C101.569 5.89436 101.289 5.87103 101.087 5.75437C101.047 5.73103 100.837 5.44044 100.822 5.38953C100.797 5.30469 100.85 5.24742 100.822 5.16258C100.797 5.09682 100.731 4.96531 100.759 4.8635Z" fill="white"/>
<path d="M106.236 21.4953C106.27 21.3596 106.331 21.2386 106.365 21.0902C106.387 20.9905 106.304 20.9141 106.336 20.7826C106.357 20.6914 106.423 20.6659 106.454 20.5938C106.461 20.5578 106.467 20.5217 106.473 20.4857C106.49 20.4454 106.527 20.3966 106.541 20.3563C106.563 20.3011 106.569 20.2332 106.582 20.1781C106.577 20.142 106.575 20.106 106.571 20.0699C106.577 20.0381 106.603 19.9914 106.609 19.9617C106.624 19.9045 106.582 19.8748 106.571 19.843C106.55 19.7687 106.582 19.546 106.592 19.476C106.582 19.3933 106.571 19.3127 106.56 19.2278C106.594 19.0263 106.605 18.81 106.669 18.6445C106.707 18.5448 106.613 18.496 106.639 18.3964C106.667 18.3051 106.739 18.2033 106.768 18.1206C106.781 18.0252 106.796 17.9297 106.809 17.8343C106.819 17.8046 106.857 17.7749 106.868 17.7452C106.885 17.6985 106.872 17.6709 106.898 17.637C106.978 17.5225 107.347 17.4312 107.528 17.3994C107.562 17.3931 107.587 17.4143 107.606 17.4185C107.666 17.4334 107.833 17.4376 107.903 17.4185C107.939 17.4079 107.971 17.3697 108.001 17.3591C108.033 17.3549 108.066 17.3528 108.098 17.3485C108.198 17.304 108.251 17.1894 108.336 17.1322C108.334 16.8373 108.073 16.6231 107.863 16.5383C107.829 16.5361 107.797 16.5319 107.765 16.5276C107.646 16.4958 107.386 16.4237 107.352 16.3198C107.335 16.288 107.422 16.0334 107.441 15.9846C107.481 15.8743 107.521 15.6728 107.479 15.5286C107.47 15.4968 107.441 15.4544 107.43 15.4204C107.403 15.3207 107.405 15.2253 107.341 15.1638C107.326 15.1595 107.309 15.1574 107.292 15.1532C107.195 15.0959 107.12 14.9877 106.995 14.9559C106.881 14.9262 106.734 15.0365 106.641 14.9559C106.527 14.9559 106.459 15.0238 106.433 15.115C106.384 15.1956 106.486 15.3907 106.444 15.5095C106.427 15.5519 106.397 15.6156 106.384 15.6686C106.384 15.7216 106.384 15.7747 106.384 15.8277C106.367 15.8807 106.325 15.9486 106.306 16.0037C106.3 16.0504 106.291 16.0971 106.285 16.1416C106.268 16.1904 106.232 16.254 106.217 16.2986C106.213 16.3261 106.21 16.3516 106.206 16.3792C106.183 16.4301 106.126 16.4683 106.098 16.5276C105.971 16.5573 105.727 16.6231 105.576 16.5764C105.521 16.5595 105.466 16.5149 105.419 16.4958C105.385 16.4937 105.354 16.4916 105.32 16.4873C105.254 16.464 105.19 16.4025 105.122 16.3792C105.054 16.3728 104.984 16.3664 104.914 16.358C104.847 16.341 104.721 16.2943 104.649 16.3177C104.611 16.3325 104.584 16.3749 104.552 16.3983C104.56 16.4789 104.596 16.534 104.611 16.6061C104.607 16.6719 104.605 16.7376 104.601 16.8034C104.62 16.8755 104.662 16.8925 104.681 16.9328C104.704 16.9837 104.692 17.0261 104.711 17.0813C104.732 17.1449 104.783 17.2573 104.819 17.3188C104.838 17.3506 104.876 17.357 104.908 17.3782C104.951 17.41 104.982 17.4673 105.027 17.497C105.088 17.5415 105.277 17.62 105.351 17.6455C105.513 17.6964 105.735 17.6603 105.884 17.724C105.92 17.9149 105.863 18.1249 105.824 18.2882C105.829 18.3433 105.831 18.3985 105.835 18.4557C105.812 18.5533 105.782 18.6763 105.754 18.7739C105.754 18.8375 105.754 18.8991 105.754 18.9627C105.74 19.0221 105.712 19.1557 105.725 19.2193C105.733 19.249 105.757 19.2999 105.746 19.3487C105.742 19.3615 105.72 19.3954 105.716 19.4081C105.712 19.4548 105.71 19.4993 105.708 19.5481C105.691 19.5948 105.646 19.6245 105.629 19.6669C105.6 19.739 105.614 19.809 105.589 19.8833C105.583 19.9023 105.557 19.9405 105.551 19.9639C105.544 20.0296 105.538 20.0954 105.532 20.1611C105.523 20.1951 105.494 20.2269 105.483 20.2587C105.477 20.316 105.468 20.3711 105.464 20.4263C105.445 20.4496 105.424 20.4729 105.404 20.4941C105.343 20.4941 105.311 20.492 105.267 20.4941C105.271 20.596 105.305 20.6787 105.326 20.7635C105.326 20.8123 105.326 20.8611 105.326 20.9099C105.33 20.9268 105.351 20.9714 105.356 20.9905C105.379 21.0902 105.298 21.2196 105.337 21.3553C105.379 21.5102 105.411 21.6883 105.483 21.8326H106.219C106.225 21.8092 106.23 21.7901 106.234 21.771C106.23 21.6798 106.234 21.5886 106.236 21.4953Z" fill="white"/>
<path d="M91.4495 21.6142C91.4686 21.5867 91.4665 21.5506 91.4877 21.5251C91.5153 21.4933 91.5513 21.4827 91.5662 21.4361C91.598 21.3873 91.5662 21.2876 91.5577 21.2473C91.5428 21.1964 91.5534 21.1476 91.528 21.1073C91.4856 21.0458 91.3944 21.0224 91.3307 20.98C91.2904 20.9524 91.2607 20.8994 91.2226 20.8697C91.1865 20.857 91.1504 20.8443 91.1144 20.8294C91.0444 20.7743 91.0529 20.6852 90.9362 20.6703C90.9192 20.5155 90.7835 20.4031 90.6414 20.3734C90.5523 20.4455 90.4335 20.4667 90.3338 20.5303C90.2829 20.5643 90.2532 20.6322 90.2065 20.6682C90.1832 20.6852 90.1599 20.6894 90.1365 20.7085C90.0878 20.7467 90.092 20.8125 90.0581 20.8676C90.0453 20.8888 89.9117 20.9779 89.8905 20.9885C89.829 20.9906 89.7675 20.9949 89.7038 20.997C89.4684 21.0649 89.1375 21.0543 88.8851 20.997C88.796 20.9758 88.7366 20.9949 88.6687 20.9673C88.6115 20.9418 88.5436 20.8824 88.5012 20.8379C88.4948 20.8252 88.4884 20.8125 88.4821 20.7997C88.4693 20.7997 88.463 20.7997 88.4524 20.7997C88.4015 20.7764 88.3336 20.7403 88.2954 20.7022C88.2678 20.6746 88.2594 20.6364 88.236 20.6046C88.2106 20.5685 88.1618 20.5516 88.1278 20.524C88.1003 20.5028 88.0939 20.4603 88.0706 20.4349C88.0536 20.42 88.0282 20.42 88.0112 20.4052C87.9688 20.3713 87.9369 20.3119 87.8924 20.2779C87.8818 20.2737 87.8733 20.2716 87.8627 20.2673C87.8394 20.2058 87.8182 20.1422 87.7948 20.0807C87.7757 20.0489 87.7291 20.0234 87.7142 19.9916C87.6591 19.8601 87.7397 19.6564 87.7036 19.508C87.6951 19.4698 87.6591 19.3595 87.6654 19.3298C87.6718 19.2895 87.6888 19.1962 87.6739 19.141C87.6336 18.9904 87.6103 18.9353 87.6527 18.7762C87.657 18.7486 87.6612 18.7232 87.6633 18.6977C87.7482 18.5238 87.8776 18.4177 87.9285 18.2014C87.9539 18.0868 87.8712 18.0465 87.85 17.985C87.8309 17.932 87.8394 17.8238 87.8288 17.775C87.8076 17.6753 87.8797 17.669 87.9179 17.6265C87.9582 17.5841 87.9518 17.5056 87.9772 17.4484C88.0027 17.3932 88.0557 17.3487 88.0854 17.2999C88.1003 17.2511 88.113 17.2002 88.1257 17.1493C88.1448 17.1069 88.1936 17.0878 88.2148 17.0517C88.2424 17.005 88.2318 16.9435 88.253 16.8926C88.3187 16.7357 88.4524 16.5829 88.5669 16.4663C88.5987 16.4323 88.6348 16.3687 88.6751 16.3496C88.7748 16.2966 88.9169 16.3242 89.0293 16.2796C89.0739 16.2627 89.1163 16.1927 89.1566 16.1715C89.2117 16.1418 89.2542 16.1418 89.3051 16.1121C89.3751 16.0696 89.4599 15.9806 89.5405 15.953C89.7038 15.953 89.8672 15.953 90.0326 15.953C90.0538 15.9593 90.1005 15.9763 90.1217 15.9827C90.1662 15.9933 90.2002 15.9806 90.2299 16.0018C90.3508 16.0612 90.4823 16.4345 90.5841 16.5554C90.6838 16.6763 91.0253 16.6699 91.2141 16.6551C91.2522 16.6678 91.2925 16.6826 91.3329 16.6954C91.5513 16.7484 91.8313 16.6148 91.9034 16.5172C91.9246 16.4896 91.9162 16.4472 91.931 16.409C91.9586 16.3475 92.0265 16.2266 92.0116 16.1333C91.9798 15.9466 91.7444 15.7536 91.6086 15.6581C91.5662 15.6284 91.5471 15.5733 91.5004 15.55C91.4177 15.5054 91.3604 15.5075 91.2544 15.48C91.2204 15.4715 91.1823 15.4418 91.1547 15.4312C91.1186 15.4142 90.8323 15.4078 90.8089 15.4206C90.7559 15.4206 90.6965 15.4206 90.6435 15.4206C90.6265 15.4015 90.6095 15.3824 90.5947 15.3612C90.5544 15.3336 90.5014 15.2954 90.4568 15.2806C90.3062 15.2297 90.0856 15.2212 89.8969 15.2212C89.8226 15.2212 89.7463 15.2212 89.6699 15.2212C89.3369 15.3166 88.9975 15.41 88.7345 15.5775C88.5669 15.6836 88.4333 15.849 88.2912 15.9827C88.27 16.0018 88.2339 16.0018 88.2127 16.0209C88.1681 16.0569 88.1469 16.1015 88.113 16.1481C88.0706 16.1884 88.0282 16.2287 87.9857 16.2669C87.9454 16.3221 87.9391 16.4005 87.8966 16.4557C87.8521 16.513 87.7821 16.5575 87.7397 16.6148C87.7163 16.6466 87.7121 16.6911 87.6909 16.7229C87.6676 16.7548 87.6251 16.7569 87.5912 16.7823L87.4342 16.9796C87.36 17.1196 87.3409 17.2829 87.2667 17.425C87.2455 17.4484 87.2221 17.4717 87.1988 17.495C87.1733 17.5396 87.1733 17.5841 87.15 17.6329C87.1394 17.6584 87.1033 17.6817 87.0906 17.7029C87.0524 17.7708 87.0588 17.8471 87.0334 17.9299C87.0164 17.985 86.9761 18.0359 86.9527 18.0783C86.9146 18.1462 86.9315 18.2353 86.904 18.3159C86.8891 18.3647 86.8509 18.4113 86.8361 18.4538C86.8022 18.5429 86.8128 18.6489 86.7767 18.7401C86.7555 18.7931 86.7343 18.8568 86.7109 18.9204V20.4561C86.7194 20.4794 86.7258 20.5028 86.7385 20.5219C86.7618 20.5643 86.8128 20.6003 86.8361 20.6406C86.8552 20.6767 86.8467 20.7212 86.8764 20.7488C86.9146 20.787 86.9697 20.804 87.0015 20.8464C87.0461 20.9037 87.0758 20.9737 87.1309 21.014C87.1776 21.05 87.2221 21.0712 87.2582 21.1137C87.2752 21.1306 87.2773 21.1582 87.2985 21.173C87.3282 21.1921 87.3579 21.1943 87.377 21.2218C87.4406 21.3067 87.5106 21.4064 87.5933 21.47C87.6336 21.4997 87.6845 21.5082 87.7227 21.54C87.7736 21.5782 87.7821 21.6609 87.8415 21.697C87.8733 21.7076 87.9072 21.716 87.9391 21.7267C88.0027 21.7585 88.0642 21.7924 88.1321 21.8263H91.1123C91.1123 21.8263 91.1123 21.8263 91.1123 21.8242C91.2098 21.767 91.3859 21.7012 91.4495 21.6142Z" fill="white"/>
<path d="M99.7643 21.6036C99.7643 21.5739 99.7643 21.5463 99.7643 21.5145C99.7792 21.4594 99.8173 21.3682 99.794 21.2875C99.777 21.2239 99.7155 21.1985 99.6858 21.1476C99.6264 21.0479 99.6116 20.9503 99.5692 20.8315C99.5543 20.7912 99.5098 20.7445 99.5013 20.7021C99.4886 20.6576 99.5755 20.3967 99.5883 20.3352C99.6116 20.2355 99.6052 19.9852 99.5883 19.8897C99.6074 19.7179 99.6286 19.5461 99.6477 19.3743C99.6646 19.3149 99.7177 19.3001 99.7474 19.2555C99.7898 19.1898 99.7898 19.0964 99.8343 19.0392C99.8619 19.001 99.9149 18.9861 99.934 18.9395C99.9679 18.8567 99.9828 18.7634 100.002 18.6828C100.002 18.6298 100.002 18.5768 100.002 18.5237C100.023 18.4453 100.076 18.3562 100.102 18.2756C100.108 18.2289 100.114 18.1822 100.121 18.1356C100.155 18.0677 100.256 18.0465 100.297 17.9977C100.392 17.8853 100.418 17.7262 100.505 17.6032C100.553 17.5289 100.668 17.5268 100.74 17.4738C100.812 17.4208 100.838 17.2935 100.916 17.2468C100.967 17.2171 101.018 17.2192 101.065 17.1874C101.101 17.162 101.118 17.1132 101.143 17.0771C101.2 17.005 101.353 16.9096 101.448 16.8799C101.527 16.8544 101.648 16.8905 101.714 16.899C101.769 16.9053 101.862 16.8735 101.921 16.899C101.991 16.9287 102.042 17.0093 102.108 17.0474C102.263 17.1302 102.382 17.1768 102.454 17.3444C102.46 17.3974 102.464 17.4504 102.473 17.5035C102.518 17.6371 102.518 17.6986 102.481 17.8492C102.456 17.9595 102.503 18.0889 102.473 18.1865C102.433 18.3074 102.416 18.4834 102.384 18.6107C102.384 18.6446 102.384 18.6765 102.384 18.7104C102.356 18.8101 102.295 18.8992 102.265 19.0073C102.269 19.054 102.271 19.1007 102.276 19.1473C102.271 19.1643 102.242 19.2004 102.235 19.2173C102.227 19.2789 102.214 19.3425 102.206 19.404C102.176 19.5016 102.153 19.614 102.115 19.7222C102.091 19.7943 102.047 19.8685 102.036 19.9597C101.991 19.9809 101.879 19.9894 101.839 20.0191C101.775 20.0615 101.796 20.1676 101.709 20.1952C101.707 20.3712 101.737 20.2864 101.818 20.3543C101.854 20.384 101.871 20.4667 101.926 20.5027C101.924 20.647 101.958 20.7403 101.996 20.8379C101.964 20.9779 102.117 21.3406 102.193 21.4042C102.242 21.4191 102.291 21.436 102.339 21.453C102.488 21.5378 102.496 21.5803 102.685 21.4912C102.7 21.4912 102.713 21.4912 102.725 21.4912C102.74 21.4848 102.793 21.4466 102.804 21.4318C102.923 21.2833 102.798 21.0479 102.882 20.9057C102.946 20.7997 103.056 20.6915 103.099 20.5706C103.103 20.5367 103.105 20.5027 103.109 20.4709C103.131 20.3967 103.167 20.3246 103.188 20.2546C103.192 20.2143 103.194 20.1761 103.196 20.1358C103.224 20.0446 103.294 19.964 103.326 19.877C103.332 19.8155 103.338 19.7519 103.345 19.6903C103.349 19.6797 103.37 19.6522 103.374 19.6416C103.377 19.5673 103.381 19.4952 103.383 19.4231C103.4 19.3658 103.427 19.2873 103.442 19.2258C103.438 19.1304 103.436 19.0349 103.434 18.9395C103.478 18.7825 103.597 18.6871 103.642 18.5343C103.635 18.4177 103.627 18.3031 103.621 18.1886C103.661 17.9935 103.642 17.7177 103.593 17.5565C103.591 17.4992 103.587 17.4441 103.582 17.3868C103.561 17.3083 103.338 16.9923 103.279 16.9626C103.205 16.9265 103.122 16.9393 103.052 16.8926C102.991 16.8523 102.942 16.7632 102.874 16.725C102.806 16.6868 102.738 16.6911 102.677 16.6465C102.607 16.5935 102.577 16.5172 102.479 16.4875C102.25 16.4175 101.926 16.4323 101.692 16.4875C101.633 16.4917 101.574 16.4938 101.516 16.4959C101.425 16.5214 101.308 16.5681 101.219 16.5956C101.181 16.602 101.141 16.6084 101.101 16.6147C101.02 16.6529 100.933 16.7123 100.855 16.7526C100.744 16.8099 100.636 16.8374 100.539 16.9032C100.49 16.935 100.441 16.9902 100.392 17.022C100.352 17.0326 100.312 17.0474 100.273 17.0602C100.203 17.0559 100.195 17.0305 100.155 17.0008C100.136 16.918 100.146 16.7653 100.114 16.6826C100.093 16.6296 100.042 16.5893 100.025 16.5235C100.025 16.4875 100.025 16.4514 100.025 16.4153C100.019 16.3941 99.9849 16.3644 99.9764 16.3475C99.9701 16.3072 99.9637 16.2669 99.9573 16.2287C99.8873 16.0611 99.7452 15.9635 99.514 15.9614C99.478 15.9911 99.4504 15.9996 99.4355 16.0505C99.3931 16.1205 99.4377 16.3135 99.4165 16.4069C99.4037 16.4599 99.3804 16.532 99.3677 16.5765C99.3359 16.6805 99.3592 16.7738 99.3189 16.8629C99.2892 16.9287 99.2383 17.0177 99.2107 17.0899C99.1704 17.2002 99.1513 17.3105 99.1216 17.425C99.1195 17.4611 99.1153 17.4971 99.1131 17.5332C99.1068 17.548 99.0813 17.5692 99.0728 17.5841C99.0474 17.6329 99.0686 17.688 99.0537 17.7516C99.0389 17.8132 99.0007 17.881 98.9859 17.9404C98.9859 17.9807 98.9859 18.0189 98.9859 18.0592C98.9689 18.125 98.9413 18.2013 98.9265 18.2565C98.9286 18.3222 98.9328 18.388 98.9371 18.4537C98.9074 18.6107 98.8925 18.7761 98.8565 18.9289C98.8353 19.018 98.8607 19.0858 98.8374 19.1664C98.8056 19.2746 98.7377 19.281 98.691 19.3552C98.6613 19.3976 98.6444 19.4676 98.6295 19.5228C98.6295 19.5928 98.6295 19.6607 98.6295 19.7306C98.6041 19.8791 98.6274 20.1146 98.6592 20.2546C98.6762 20.3309 98.6422 20.3649 98.6592 20.4433C98.6656 20.4794 98.6953 20.5324 98.691 20.5727C98.6719 20.6576 98.621 20.7318 98.5998 20.8103C98.5786 20.8909 98.6189 20.9609 98.6295 21.0076C98.6295 21.0797 98.6295 21.1518 98.6295 21.226C98.6338 21.2388 98.6571 21.2727 98.6592 21.2875C98.6656 21.3724 98.6719 21.4594 98.6783 21.5442C98.7101 21.6312 98.8438 21.7478 98.971 21.8327H99.5904C99.6667 21.7796 99.7389 21.6821 99.7643 21.6036Z" fill="white"/>
<path d="M95.4796 21.4357C95.4054 21.3678 95.2951 21.3593 95.1954 21.3169C95.1424 21.2957 95.1169 21.2469 95.0766 21.2193C95.0469 21.2003 95.013 21.2024 94.9875 21.179C94.8794 21.0836 94.9621 20.9691 94.7118 20.9712C94.6227 21.0645 94.5251 21.0581 94.4042 21.1197C94.3915 21.1366 94.3809 21.1536 94.3661 21.1706C94.313 21.2045 94.1624 21.2299 94.0903 21.2003C94.0012 21.1642 93.91 21.0878 93.8337 21.0306C93.787 20.986 93.7424 20.9394 93.6958 20.8927C93.6194 20.8651 93.5452 20.8397 93.4688 20.8121C93.4264 20.7803 93.3988 20.6827 93.35 20.6445C93.3458 20.5576 93.3288 20.4557 93.3585 20.3773C93.3755 20.3348 93.4306 20.3094 93.4073 20.2182C93.3734 20.0867 93.3225 19.9424 93.2885 19.8215C93.2482 19.6773 93.35 19.5585 93.3288 19.4461C93.2949 19.2785 93.2822 19.1852 93.3203 19.0113C93.3373 18.9264 93.3034 18.8288 93.3288 18.7546C93.3394 18.7228 93.3819 18.5722 93.3988 18.5467C93.42 18.517 93.4582 18.5107 93.4879 18.4873C93.5006 18.4746 93.4964 18.4534 93.507 18.4386C93.5834 18.3304 93.7 18.2774 93.7361 18.1204C93.8188 18.131 93.823 18.2371 93.8633 18.2901C93.8718 18.2922 93.8824 18.2964 93.893 18.2986C93.9249 18.3325 93.9185 18.3664 93.9418 18.4067C93.9737 18.464 94.0542 18.498 94.1094 18.5361C94.1412 18.5595 94.1709 18.6104 94.2091 18.6252C94.2579 18.6295 94.3067 18.6316 94.3576 18.6358C94.4276 18.6549 94.5082 18.7037 94.5739 18.7249C94.61 18.7376 94.9133 18.7716 94.9472 18.7652C94.9833 18.7567 95.066 18.7398 95.1042 18.744C95.3396 18.7716 95.679 18.7355 95.9039 18.6761C95.976 18.657 96.0481 18.6931 96.1011 18.7058C96.1478 18.7164 96.2178 18.6931 96.2475 18.6973C96.3281 18.7058 96.4172 18.7313 96.4935 18.7355C96.5381 18.7228 96.5784 18.7079 96.6229 18.6973C96.6844 18.6825 96.8223 18.6613 96.8881 18.6761C96.9029 18.6782 96.9411 18.6931 96.9687 18.6867C97.0323 18.6698 97.0811 18.6189 97.1447 18.5976C97.2296 18.5658 97.325 18.5786 97.3908 18.5361C97.4353 18.5086 97.5053 18.4237 97.5498 18.4067C97.6114 18.3855 97.6708 18.4067 97.7259 18.3877C97.8701 18.341 98.0462 18.1543 97.9529 17.9528C97.9083 17.8574 97.8086 17.8637 97.7174 17.815C97.6601 17.7853 97.6262 17.7365 97.5498 17.7153C97.4502 17.6877 97.3505 17.694 97.2932 17.6262C97.2826 17.6134 97.2847 17.5986 97.3038 17.5774C97.3314 17.5053 97.4099 17.5201 97.4714 17.4798C97.5074 17.4544 97.5286 17.4013 97.5605 17.3716C97.5562 17.3292 97.5541 17.2868 97.552 17.2444C97.4926 17.1892 97.4162 17.1489 97.3441 17.1065C97.2996 16.9898 97.4014 16.8329 97.3632 16.7714C97.3462 16.7247 97.2593 16.6632 97.2147 16.6399C97.1808 16.4786 97.1914 16.1838 97.1171 16.0565C97.0768 15.9929 96.8965 15.9505 96.8202 15.9293C96.7905 15.9293 96.7608 15.9293 96.7311 15.9293C96.5784 15.8678 96.4278 15.7681 96.2772 15.7108C96.152 15.6641 95.9951 15.7172 95.8445 15.6811C95.7851 15.6663 95.7087 15.6599 95.626 15.662C95.4478 15.7872 95.2718 15.6238 95.0533 15.6705C94.8327 15.7193 94.7309 15.7193 94.5718 15.8296C94.5082 15.8741 94.4594 16.0014 94.3936 16.0565C94.3109 16.1265 94.2048 16.1605 94.1285 16.2368C94.0839 16.2793 94.0564 16.3238 94.0203 16.3747C93.9736 16.4383 93.8888 16.4723 93.8421 16.5338C93.7615 16.6399 93.6852 16.7459 93.6067 16.852C93.594 16.8689 93.5749 16.8689 93.5558 16.8817C93.5452 16.8901 93.4179 17.0259 93.4094 17.0386C93.3606 17.1086 93.3352 17.1892 93.28 17.2571C93.2313 17.3165 93.1634 17.378 93.1231 17.4459C93.0976 17.4819 93.0976 17.5307 93.0743 17.5647C93.0637 17.5753 93.0319 17.5816 93.0255 17.5944C92.9852 17.6474 92.9831 17.7216 92.9555 17.781C92.9364 17.8256 92.8855 17.8659 92.8664 17.9104C92.8261 18.008 92.8261 18.1055 92.7773 18.1883C92.7604 18.2137 92.7201 18.2477 92.7073 18.2752C92.6713 18.3537 92.6798 18.4916 92.6586 18.5828C92.6246 18.7143 92.5801 18.8501 92.5504 18.9688C92.5504 19.0007 92.5504 19.0346 92.5504 19.0664C92.5228 19.1682 92.5292 19.3146 92.5016 19.4312C92.4889 19.4779 92.4634 19.5288 92.4507 19.5691C92.4443 19.7112 92.4401 19.8533 92.4316 19.9955C92.4231 20.0273 92.3913 20.0549 92.3828 20.0845C92.3871 20.1164 92.3892 20.1503 92.3913 20.1842C92.3977 20.3179 92.368 20.4409 92.4019 20.5618C92.4231 20.6339 92.4846 20.6954 92.5101 20.7591C92.527 20.7972 92.5122 20.8333 92.5313 20.8672C92.561 20.9139 92.6204 20.9478 92.648 20.9966C92.667 21.0475 92.6883 21.1006 92.7073 21.1536C92.754 21.2299 92.8431 21.3275 92.9152 21.3805C92.9322 21.3933 92.9513 21.3933 92.964 21.4102C93.0064 21.4675 93.0213 21.5333 93.0743 21.5778C93.1125 21.6118 93.1782 21.6054 93.2206 21.6372C93.2355 21.6478 93.2461 21.6817 93.2588 21.6966C93.2949 21.7369 93.3755 21.792 93.4264 21.8154C93.4497 21.8196 93.4731 21.8239 93.4964 21.826C93.5028 21.826 93.5091 21.8323 93.5176 21.8366H95.4902C95.5518 21.7751 95.5899 21.6966 95.5942 21.5969C95.556 21.5545 95.5157 21.4696 95.4796 21.4357ZM93.7361 17.6962C93.7552 17.641 93.9991 17.3589 94.05 17.3186C94.0818 17.2953 94.1264 17.2804 94.1497 17.2507C94.1709 17.2168 94.1752 17.1829 94.1985 17.151C94.2303 17.1065 94.2897 17.0747 94.3151 17.0238C94.3364 16.9835 94.3321 16.9453 94.3554 16.905C94.3851 16.8817 94.4148 16.8583 94.4424 16.835C94.4636 16.8074 94.4636 16.782 94.4827 16.7544C94.5251 16.7162 94.5676 16.6759 94.61 16.6356C94.6206 16.6208 94.6185 16.5996 94.6312 16.5868C94.7373 16.4935 94.8603 16.432 94.9769 16.3514C95.0066 16.3174 95.0363 16.2835 95.066 16.2517C95.1339 16.205 95.2272 16.1732 95.3121 16.152C95.3481 16.1435 95.3863 16.1584 95.4118 16.1414C95.5369 16.1584 95.6621 16.1753 95.7851 16.1902C95.8445 16.1944 95.9039 16.1987 95.9611 16.2008C95.9823 16.2199 96.0014 16.239 96.0205 16.2602C96.0863 16.3068 96.1563 16.3323 96.2178 16.379C96.2369 16.4087 96.2581 16.4383 96.2772 16.468C96.4214 16.5699 96.5444 16.5868 96.5932 16.7947C96.6166 16.9029 96.5444 17.0026 96.5232 17.081C96.4914 17.2041 96.4935 17.3568 96.4426 17.4671C96.4299 17.4968 96.3917 17.501 96.3747 17.5265C96.3451 17.5731 96.3472 17.6156 96.326 17.675C96.3048 17.7322 96.2475 17.7789 96.2369 17.8425C96.0226 17.8998 95.8127 17.9231 95.5178 17.9231C95.4224 17.9231 95.3269 17.9231 95.2315 17.9231C95.0512 17.8765 94.8666 17.8383 94.6715 17.8828C94.5697 17.9083 94.4488 17.8871 94.3661 17.904C94.2748 17.9231 94.2112 17.8743 94.1582 17.8531C94.0309 17.8043 93.8909 17.8171 93.7934 17.8934C93.7531 17.8849 93.7615 17.8722 93.7361 17.8531C93.7361 17.8022 93.7361 17.7492 93.7361 17.6962Z" fill="white"/>
<path d="M111.575 21.4466C111.581 21.4106 111.553 21.3533 111.545 21.3087C111.528 21.2387 111.568 21.1433 111.545 21.1009C111.5 21.0118 111.206 21.0309 111.08 21.0627C110.841 21.12 110.614 21.2006 110.383 21.26C110.272 21.2897 110.141 21.2197 110.058 21.2006C110.028 21.2006 109.999 21.2006 109.969 21.2006C109.886 21.1751 109.731 21.1009 109.664 21.0521C109.628 21.0245 109.621 20.9672 109.594 20.9333C109.589 20.9291 109.479 20.8527 109.464 20.8442C109.356 20.77 109.227 20.7424 109.178 20.6088C109.138 20.4985 109.227 20.3161 109.227 20.1739C109.227 20.0297 109.195 19.8218 109.237 19.6882C109.252 19.6415 109.282 19.5716 109.294 19.51C109.301 19.4443 109.309 19.3785 109.316 19.3128C109.335 19.2491 109.384 19.1898 109.403 19.124C109.434 19.0243 109.443 18.9458 109.481 18.8461C109.521 18.7528 109.581 18.6701 109.619 18.5704C109.729 18.5513 109.755 18.6234 109.837 18.6489C109.905 18.6722 109.961 18.6616 110.024 18.6892C110.207 18.7634 110.455 18.8822 110.684 18.9076C110.735 18.9119 110.798 18.8589 110.841 18.8483C110.96 18.8164 111.032 18.8928 111.148 18.8673C111.25 18.844 111.416 18.8758 111.541 18.8483C111.64 18.827 111.742 18.791 111.827 18.7698C111.94 18.738 112.041 18.8249 112.124 18.8483C112.23 18.8779 112.538 18.8737 112.646 18.8483C112.699 18.8483 112.752 18.8483 112.803 18.8483C112.96 18.8058 113.17 18.7422 113.286 18.651C113.329 18.6149 113.352 18.5237 113.403 18.4834C113.409 18.3689 113.346 18.1737 113.265 18.1271C113.172 18.074 113.03 18.0995 112.93 18.0465C112.835 17.9977 112.788 17.8895 112.724 17.8089C112.733 17.7241 112.809 17.6965 112.782 17.5819C112.769 17.531 112.722 17.3444 112.741 17.2744C112.748 17.2511 112.784 17.2192 112.792 17.1959C112.816 17.1238 112.801 16.9477 112.763 16.8989C112.735 16.8311 112.682 16.8586 112.616 16.8311C112.521 16.7886 112.459 16.6741 112.359 16.6423C112.368 16.5384 112.442 16.4281 112.389 16.3262C112.328 16.2075 112.147 16.1714 112.035 16.0993C111.982 16.0632 111.993 16.006 111.956 15.9508C111.884 15.8426 111.611 15.7684 111.424 15.7726C111.39 15.796 111.341 15.7854 111.297 15.8002C111.257 15.8151 111.218 15.8575 111.178 15.8702C111.1 15.8702 111.019 15.8702 110.943 15.8702C110.907 15.8787 110.862 15.902 110.834 15.9105C110.773 15.9254 110.739 15.8893 110.707 15.8808C110.62 15.8575 110.349 15.9487 110.304 15.9805C110.23 16.0335 110.139 16.1417 110.088 16.2159C110.069 16.2456 110.067 16.2753 110.039 16.2944C109.973 16.3411 109.946 16.3899 109.891 16.4429C109.85 16.4832 109.784 16.5044 109.753 16.5511C109.725 16.5914 109.719 16.6317 109.693 16.6699C109.642 16.7441 109.555 16.8035 109.507 16.8777C109.451 16.9583 109.443 17.0602 109.388 17.145C109.333 17.2298 109.252 17.3295 109.201 17.4123C109.182 17.4716 109.161 17.531 109.142 17.5926C109.095 17.6689 109.031 17.7622 108.993 17.8492C108.972 17.9001 108.983 17.9531 108.964 18.0083C108.949 18.0486 108.917 18.0889 108.904 18.1271C108.877 18.2098 108.885 18.2734 108.855 18.3562C108.847 18.3795 108.815 18.4071 108.807 18.424C108.775 18.4855 108.788 18.5577 108.758 18.6213C108.715 18.7125 108.65 18.8334 108.62 18.9373C108.616 18.9989 108.611 19.0561 108.609 19.1155C108.601 19.1431 108.578 19.1834 108.569 19.2131C108.563 19.2682 108.556 19.3191 108.55 19.3722C108.527 19.4443 108.482 19.5185 108.461 19.5991C108.44 19.6819 108.48 19.737 108.452 19.8176C108.427 19.8834 108.376 19.9682 108.353 20.0446C108.317 20.1591 108.321 20.3967 108.344 20.5091C108.368 20.6151 108.327 20.7254 108.363 20.8145C108.374 20.84 108.41 20.8612 108.423 20.8824C108.52 21.0585 108.609 21.2154 108.72 21.3787C108.777 21.4657 108.872 21.523 108.955 21.5866C108.985 21.6099 108.993 21.6609 109.025 21.6863C109.08 21.7266 109.163 21.7839 109.241 21.8369H111.609C111.647 21.7096 111.551 21.5718 111.575 21.4466ZM109.95 17.8831C109.971 17.845 109.963 17.8025 109.98 17.7559C110.007 17.6795 110.06 17.5777 110.088 17.4992C110.107 17.4377 110.09 17.3529 110.126 17.3126C110.137 17.2998 110.164 17.2956 110.177 17.2829C110.228 17.2235 110.277 17.1577 110.342 17.1153C110.429 17.0559 110.533 17.0135 110.588 16.9265C110.633 16.8608 110.639 16.7886 110.68 16.7187C110.739 16.6084 110.858 16.4747 110.966 16.4111C111.085 16.3411 111.335 16.4281 111.447 16.3538C111.623 16.3496 111.776 16.4768 111.831 16.5893C111.85 16.6296 111.84 16.6656 111.861 16.708C111.891 16.7738 111.946 16.8417 111.969 16.9159C111.973 16.9711 111.976 17.0283 111.98 17.0835C112.001 17.1662 112.02 17.4886 111.969 17.5586C111.954 17.5777 111.916 17.5947 111.899 17.618C111.827 17.7262 111.742 17.9086 111.634 17.9744C111.575 18.0104 111.486 17.9701 111.407 17.9934C111.008 18.1207 110.224 18.1759 109.891 17.985C109.901 17.9277 109.929 17.9213 109.95 17.8831Z" fill="white"/>
<path d="M115.051 21.3659C115.072 21.3128 115.092 21.2598 115.111 21.2068C115.198 21.0604 115.225 20.8123 115.268 20.6235C115.282 20.5641 115.257 20.4983 115.248 20.4559C115.223 20.335 115.259 20.1929 115.278 20.1102C115.287 20.0677 115.263 20.0487 115.259 20.0296C115.244 19.9723 115.276 19.7771 115.289 19.722C115.31 19.6244 115.244 19.5693 115.259 19.4929C115.293 19.3254 115.352 19.1451 115.397 18.9987C115.403 18.9011 115.41 18.8014 115.416 18.7017C115.425 18.6827 115.458 18.6657 115.467 18.6424C115.482 18.6042 115.461 18.5278 115.456 18.5045C115.45 18.4642 115.471 18.4239 115.475 18.3942C115.486 18.3539 115.463 18.3072 115.456 18.2754C115.448 18.2287 115.478 18.0145 115.497 17.9784C115.509 17.9487 115.552 17.9169 115.565 17.8766C115.565 17.8469 115.565 17.8172 115.565 17.7897C115.579 17.7282 115.609 17.6603 115.643 17.6115C115.675 17.5669 115.726 17.5648 115.77 17.533C115.789 17.5203 115.828 17.4524 115.838 17.4354C115.857 17.3739 115.878 17.3167 115.898 17.2573C115.927 17.1767 116.018 17.1936 116.105 17.1682C116.175 17.147 116.254 17.1151 116.322 17.0982C116.428 17.1003 116.532 17.1045 116.638 17.1088C116.744 17.0791 116.861 16.9497 117.032 17.0006C117.151 17.0345 117.213 17.1533 117.308 17.2085C117.401 17.2615 117.546 17.2615 117.635 17.3167C117.732 17.3782 117.828 17.4842 117.93 17.5436C117.987 17.5776 118.063 17.5882 118.108 17.6327C118.144 17.6688 118.169 17.726 118.216 17.7515C118.248 17.7578 118.282 17.7642 118.313 17.7706C118.364 17.7939 118.424 17.8427 118.481 17.8618C118.63 17.9084 118.956 17.8066 119.013 17.7536C119.043 17.7175 119.098 17.5733 119.071 17.4969C119.064 17.4736 119.03 17.4524 119.024 17.427C118.996 17.3463 119.03 17.2467 118.994 17.1788C118.967 17.1279 118.907 17.0876 118.876 17.0409C118.844 16.9964 118.837 16.9433 118.806 16.9009C118.776 16.8627 118.725 16.8585 118.687 16.8309C118.632 16.7885 118.576 16.7312 118.509 16.7015C118.417 16.6633 118.337 16.6676 118.243 16.6315C118.167 16.6061 118.101 16.534 118.027 16.5043C117.985 16.4873 117.93 16.5085 117.879 16.4937C117.819 16.4767 117.77 16.4258 117.711 16.4046C117.575 16.36 117.34 16.3728 117.17 16.3749C117.117 16.4109 117.022 16.3834 116.954 16.4046C116.914 16.4173 116.867 16.4512 116.824 16.464C116.744 16.4894 116.697 16.4894 116.617 16.5127C116.523 16.5424 116.438 16.6061 116.349 16.6421C116.277 16.6591 116.205 16.6761 116.135 16.6909C116.069 16.7206 116.01 16.7779 115.948 16.8097C115.9 16.8373 115.847 16.8309 115.802 16.8585C115.724 16.9073 115.643 16.9921 115.575 17.0558C115.573 17.0558 115.569 17.0558 115.567 17.0558C115.556 16.9667 115.548 16.8797 115.537 16.7906C115.528 16.7609 115.488 16.7376 115.478 16.71C115.475 16.6824 115.471 16.657 115.469 16.6294C115.42 16.5212 115.274 16.4937 115.153 16.4534C115.083 16.43 114.945 16.3982 114.877 16.4534C114.795 16.5212 114.858 16.6443 114.828 16.7694C114.795 16.9115 114.775 17.0961 114.739 17.2445C114.716 17.3485 114.744 17.4354 114.72 17.5309C114.699 17.6157 114.648 17.6963 114.623 17.7663C114.623 17.7918 114.623 17.813 114.623 17.8363C114.606 17.8915 114.574 17.9827 114.553 18.0336C114.546 18.0845 114.54 18.1333 114.534 18.1821C114.515 18.2287 114.468 18.2818 114.455 18.3305C114.455 18.3645 114.455 18.3984 114.455 18.4302C114.425 18.5575 114.413 18.7166 114.385 18.8354C114.385 18.8714 114.385 18.9096 114.385 18.9457C114.377 18.986 114.347 19.0369 114.336 19.0751C114.319 19.1387 114.336 19.1896 114.317 19.2426C114.307 19.2744 114.271 19.3147 114.258 19.3423C114.252 19.3784 114.245 19.4144 114.239 19.4526C114.228 19.4759 114.19 19.5056 114.179 19.5311C114.169 19.5756 114.16 19.6223 114.15 19.669C114.131 19.705 114.084 19.7538 114.071 19.7962C114.042 19.8853 114.069 19.9659 114.022 20.0338C113.978 20.0996 113.882 20.1547 113.825 20.2099C113.825 20.3308 113.887 20.318 113.914 20.3986C113.914 20.475 113.914 20.5492 113.914 20.6277C113.921 20.6468 113.948 20.6765 113.952 20.6977C113.986 20.8165 113.933 20.9671 113.914 21.0562C113.893 21.158 113.919 21.3044 113.933 21.3807C113.933 21.4422 113.933 21.5059 113.933 21.5695C113.961 21.6543 114.059 21.7052 114.101 21.7752C114.109 21.7922 114.122 21.8092 114.133 21.8261H114.837C114.867 21.7477 114.867 21.6459 114.901 21.5674C114.932 21.4889 115.009 21.4401 115.051 21.3659Z" fill="white"/>
<path d="M101.635 9.25432C101.622 9.24584 101.605 9.24796 101.594 9.23523C101.577 9.2119 101.59 9.18008 101.575 9.15887C101.531 9.08888 101.442 9.11009 101.378 9.05918C101.346 9.03373 101.317 8.9913 101.281 8.97009C101.213 8.92979 100.85 8.85555 100.759 8.87888C100.74 8.88313 100.699 8.91919 100.678 8.91919C100.653 8.91919 100.6 8.89585 100.581 8.88949C100.547 8.88101 100.491 8.89585 100.472 8.9001C100.36 8.92555 100.252 8.90434 100.178 8.8704C100.195 8.77707 100.271 8.69859 100.296 8.61375C100.296 8.57132 100.296 8.52678 100.296 8.48648C100.311 8.42921 100.341 8.36982 100.356 8.31891C100.358 8.25952 100.362 8.20013 100.364 8.13862C100.379 8.0771 100.419 7.87136 100.375 7.80348C100.364 7.74197 100.354 7.78439 100.335 7.75469C100.335 7.72288 100.335 7.68894 100.335 7.655C100.324 7.61258 100.32 7.50228 100.294 7.45774C100.271 7.41531 100.203 7.39622 100.175 7.35804C100.152 7.32623 100.156 7.29441 100.135 7.25835C100.091 7.18199 99.7639 7.03139 99.6048 7.06957C99.4585 7.10139 99.3418 7.14593 99.1721 7.15866C99.1552 7.24563 99.1255 7.33895 99.1021 7.4344C99.0873 7.5044 99.1361 7.56379 99.1212 7.61258C99.1064 7.66561 99.0406 7.73348 99.0237 7.78863C98.9918 7.87984 99.0215 7.97317 98.994 8.0665C98.9812 8.10892 98.9367 8.13649 98.924 8.1768C98.8922 8.27225 98.9176 8.38891 98.9155 8.48436C98.9155 8.52466 98.8434 8.58829 98.8264 8.62223C98.8009 8.66889 98.8264 8.7198 98.8073 8.78131C98.7903 8.83222 98.7522 8.9001 98.7373 8.95737C98.6143 8.97858 98.5888 8.88313 98.5019 8.84919C98.2537 8.7495 97.9016 8.74525 97.6343 8.8301C97.6004 8.83858 97.5622 8.83222 97.5368 8.84919C97.5049 8.85979 97.4986 8.86404 97.488 8.89797C97.4795 8.90858 97.4859 8.9001 97.4795 8.91919C97.5113 8.95524 97.5452 8.9913 97.5792 9.02736C97.6386 9.06979 97.7234 9.10797 97.7658 9.16524C97.7977 9.2119 97.8125 9.25856 97.8443 9.30311C97.874 9.33068 97.9037 9.35614 97.9334 9.38159C97.9483 9.40704 97.9292 9.44098 97.9419 9.4728C97.9419 9.4728 98.0395 9.57885 98.0395 9.58097C98.0522 9.58946 98.1752 9.67006 98.1795 9.67218C98.2537 9.70188 98.3258 9.68915 98.3873 9.73157C98.4191 9.76763 98.4531 9.80369 98.4849 9.84187C98.4891 9.93732 98.4488 9.99459 98.4255 10.0879C98.4213 10.1516 98.4191 10.2131 98.4149 10.2746C98.4001 10.3128 98.3343 10.3509 98.3364 10.404C98.3364 10.4421 98.3873 10.4824 98.3767 10.5334C98.3661 10.5821 98.3301 10.6521 98.3173 10.7009C98.3216 10.7858 98.3237 10.8727 98.3258 10.9576C98.241 11.2567 98.241 11.5897 98.1582 11.8866C98.1646 11.9587 98.171 12.033 98.1773 12.1051C98.1646 12.1539 98.1328 12.226 98.1158 12.2833C98.1158 12.349 98.1158 12.4169 98.1158 12.4805C98.1052 12.5124 98.0819 12.5336 98.0776 12.5802C98.0755 12.5824 98.0713 12.5866 98.0692 12.5908C98.0289 12.593 97.9737 12.5972 97.9504 12.5802C97.944 12.5802 97.9377 12.5802 97.9313 12.5802C97.9313 12.6672 97.9589 12.7245 97.9695 12.7881C97.9801 12.8433 97.9355 12.8517 97.9504 12.9069C97.961 12.9429 98.0076 12.9811 98.0183 13.0151C98.0437 13.0914 98.0119 13.4075 97.9992 13.469C97.9864 13.5326 98.0076 13.6111 98.0183 13.6578C98.0289 13.7341 98.0373 13.8105 98.0479 13.8868C98.0755 13.9717 98.1264 14.0502 98.1561 14.1244C98.1816 14.1859 98.1858 14.2474 98.2346 14.2835C98.3025 14.3365 98.5401 14.5104 98.6673 14.4829C98.7013 14.4744 98.7373 14.4447 98.7649 14.432C98.8243 14.4065 98.8879 14.3938 98.9218 14.3429C98.9664 14.275 99.0576 13.9017 99.03 13.7702C99.0131 13.6853 98.9706 13.4563 99.0003 13.346C99.0131 13.3057 99.0491 13.2569 99.0597 13.2166C99.0767 13.1466 99.0088 13.1126 99.03 13.0384C99.047 12.9854 99.0915 12.9069 99.1106 12.8602C99.1149 12.8114 99.117 12.7605 99.1191 12.7117C99.1255 12.6884 99.1424 12.6439 99.1488 12.6227C99.1488 12.5739 99.1488 12.523 99.1488 12.4742C99.1658 12.3936 99.1743 12.2918 99.1573 12.1857C99.1552 12.1687 99.1382 12.12 99.1488 12.0881C99.1573 12.0648 99.1912 12.0351 99.1976 12.0075C99.1976 11.9694 99.1976 11.929 99.1976 11.8887C99.2188 11.823 99.204 11.7339 99.2273 11.6533C99.2337 11.6321 99.2612 11.5939 99.2676 11.5748C99.2846 11.5197 99.2506 11.4582 99.2485 11.4263C99.2443 11.3627 99.2846 11.2757 99.2973 11.2291C99.3121 11.1761 99.2761 11.1485 99.2973 11.0912C99.3079 11.0806 99.3185 11.07 99.327 11.0615C99.3312 11.0212 99.3333 10.983 99.3376 10.9427C99.3461 10.9152 99.3779 10.8749 99.3864 10.843C99.3906 10.807 99.3949 10.7709 99.3949 10.7349C99.4097 10.6903 99.4521 10.6521 99.4649 10.6076C99.4649 10.5567 99.4649 10.5079 99.4649 10.4591C99.4755 10.4188 99.5115 10.3722 99.5242 10.3297C99.5603 10.2258 99.5667 10.0837 99.6133 9.99247C99.6324 9.97338 99.6515 9.95429 99.6727 9.93308C99.7321 9.93096 99.7809 9.89066 99.8297 9.90338C99.8573 9.91187 99.9124 9.94368 99.9379 9.95217C100.004 9.95217 100.069 9.95217 100.135 9.95217C100.205 9.97126 100.273 10.0094 100.362 9.97126C100.407 9.95217 100.47 9.87369 100.53 9.88217C100.54 9.88429 100.57 9.90975 100.578 9.91187C100.676 9.90763 100.776 9.9055 100.873 9.90338C100.941 9.92035 101.155 9.98611 101.259 9.95217C101.268 9.95005 101.291 9.92459 101.298 9.92247C101.329 9.91823 101.363 9.91611 101.395 9.91187C101.416 9.90338 101.433 9.86945 101.454 9.86308C101.507 9.86096 101.561 9.8546 101.611 9.85248C101.686 9.8249 101.756 9.71036 101.779 9.634C101.838 9.44734 101.726 9.32644 101.635 9.25432Z" fill="white"/>
<path d="M106.392 9.36902C106.363 9.34145 106.352 9.28418 106.324 9.26085C106.269 9.24176 106.218 9.22055 106.165 9.20146C106.123 9.16964 106.108 9.08904 106.068 9.05298C105.947 8.94692 105.792 8.85147 105.654 8.76663C105.54 8.69663 105.306 8.70724 105.173 8.65845C105.124 8.63936 105.126 8.6033 105.092 8.56936C105.073 8.54815 104.95 8.47179 104.925 8.46119C104.806 8.4421 104.689 8.42089 104.57 8.4018C104.488 8.3721 104.398 8.3021 104.314 8.27453C104.186 8.23211 103.796 8.30847 103.722 8.36362C103.69 8.38907 103.69 8.4527 103.662 8.4824C103.641 8.50573 103.599 8.51422 103.582 8.54179C103.575 8.57785 103.569 8.61391 103.563 8.65209C103.542 8.70512 103.493 8.72208 103.482 8.80057C103.474 8.80057 103.463 8.80057 103.452 8.80057C103.41 8.88753 103.338 8.9448 103.285 9.01692C103.168 9.17812 103.062 9.36054 102.988 9.56205C102.988 9.61083 102.988 9.66174 102.988 9.71052C102.975 9.7487 102.922 9.79961 102.909 9.83779C102.909 9.86537 102.909 9.89082 102.909 9.91839C102.89 9.97778 102.856 10.0605 102.839 10.1369C102.837 10.226 102.833 10.315 102.831 10.4041C102.82 10.4508 102.801 10.5696 102.82 10.6311C102.827 10.6502 102.854 10.6735 102.859 10.6905C102.878 10.7478 102.852 10.8029 102.878 10.8496C102.897 10.8814 102.956 10.9047 102.986 10.9302C103.018 10.9514 103.069 11.0341 103.086 11.068C103.107 11.1147 103.071 11.1486 103.086 11.1974C103.096 11.2377 103.16 11.3311 103.194 11.3565C103.211 11.3692 103.232 11.3629 103.245 11.3756C103.27 11.4074 103.281 11.4604 103.312 11.4838C103.571 11.6704 103.947 11.7256 104.21 11.9101C104.235 11.9462 104.263 11.9822 104.288 12.0183C104.343 12.0734 104.401 12.101 104.464 12.1477C104.5 12.171 104.498 12.2198 104.524 12.2559C104.541 12.2792 104.579 12.2792 104.604 12.294C104.799 12.4086 104.532 12.7374 104.485 12.8095C104.439 12.8816 104.422 12.9643 104.369 13.0279C104.326 13.0746 104.252 13.0916 104.199 13.1255C104.15 13.1595 104.102 13.2146 104.051 13.2464C104.004 13.2613 103.959 13.2782 103.913 13.2931C103.9 13.3079 103.887 13.3207 103.875 13.3334C103.853 13.3334 103.834 13.3334 103.815 13.3334C103.728 13.3567 103.62 13.3631 103.499 13.3631C103.44 13.3631 103.38 13.3631 103.323 13.3631C103.281 13.3737 103.257 13.3928 103.194 13.3928C103.202 13.2443 103.34 13.1849 103.293 12.977C103.281 12.924 103.249 12.8837 103.234 12.8477C103.232 12.8158 103.228 12.7819 103.223 12.7501C103.204 12.7098 103.153 12.6949 103.126 12.661C103.09 12.6143 103.049 12.5401 103.009 12.5019C102.952 12.4489 102.861 12.4362 102.793 12.3916C102.738 12.3598 102.68 12.3025 102.615 12.2834C102.547 12.2643 102.502 12.2813 102.436 12.2834C102.415 12.3004 102.392 12.3174 102.369 12.3343C102.307 12.4213 102.294 12.5655 102.171 12.591C102.152 12.6016 102.08 12.5719 102.033 12.5719C102.019 12.5868 102.01 12.5952 101.985 12.6016C101.98 12.6949 101.938 12.7374 101.915 12.8095C101.883 12.9134 101.889 13.0067 101.855 13.117C101.826 13.2167 101.775 13.3546 101.747 13.4543C101.732 13.5073 101.764 13.5646 101.766 13.5922C101.76 13.6516 101.753 13.7109 101.747 13.7682C101.751 13.7831 101.783 13.8064 101.787 13.817C101.809 13.87 101.762 13.9018 101.787 13.9443C101.798 13.9655 101.832 13.9697 101.847 13.9846C102.008 14.1797 102.186 14.1479 102.477 14.0843C102.627 14.0503 102.746 14.1182 102.842 14.1437C102.912 14.1521 102.979 14.1585 103.049 14.1649C103.134 14.1924 103.164 14.2879 103.226 14.3324C103.268 14.36 103.325 14.3558 103.363 14.3812C103.38 14.4024 103.395 14.4258 103.414 14.4491C103.467 14.5064 103.582 14.5933 103.66 14.6167C103.692 14.6124 103.726 14.6103 103.758 14.6082C103.809 14.6167 104.002 14.6527 104.074 14.6273C104.146 14.6039 104.18 14.5191 104.25 14.4894C104.318 14.4788 104.382 14.4682 104.447 14.4597C104.5 14.4385 104.551 14.3791 104.606 14.36C104.634 14.3558 104.664 14.3536 104.693 14.3494C104.729 14.3367 104.982 14.203 104.999 14.1797C105.018 14.1521 105.009 14.114 105.028 14.0821C105.058 14.0609 105.088 14.0355 105.118 14.0121C105.19 13.9061 105.241 13.7958 105.315 13.6961C105.376 13.6155 105.485 13.5773 105.523 13.4691C105.552 13.3822 105.529 13.2443 105.514 13.1722C105.485 13.0428 105.508 12.9325 105.465 12.8158C105.453 12.7819 105.41 12.7671 105.398 12.7352C105.393 12.6971 105.391 12.6568 105.389 12.6165C105.374 12.5762 105.33 12.5528 105.308 12.5189C105.289 12.4849 105.3 12.4468 105.279 12.4086C105.258 12.3895 105.232 12.3704 105.211 12.3513C105.192 12.3153 105.228 12.3089 105.211 12.2707C105.196 12.2622 105.183 12.2516 105.173 12.241C105.154 12.2134 105.141 12.1562 105.132 12.1222C105.101 11.9844 105.171 11.8507 105.113 11.7574C105.054 11.662 104.961 11.6153 104.884 11.5389C104.823 11.4774 104.782 11.3947 104.708 11.3417C104.67 11.312 104.615 11.312 104.583 11.2823C104.566 11.2695 104.566 11.2377 104.553 11.2229C104.507 11.1826 104.42 11.1847 104.365 11.1529C104.331 11.1338 104.299 11.085 104.267 11.0638C104.227 11.0405 104.186 11.0447 104.14 11.0235C104.07 10.9959 103.991 10.9556 103.921 10.9153C103.86 10.8771 103.802 10.8156 103.745 10.7774C103.718 10.769 103.692 10.7584 103.667 10.7477C103.626 10.7181 103.609 10.6587 103.569 10.629C103.571 10.3978 103.62 10.1963 103.667 10.016C103.692 9.92052 103.641 9.76355 103.667 9.68931C103.699 9.58962 103.792 9.5175 103.843 9.43478C103.883 9.37115 103.892 9.29054 103.94 9.23539C103.981 9.19085 104.074 9.18661 104.127 9.15691C104.186 9.1251 104.292 9.01904 104.343 8.96813C104.375 8.96813 104.403 8.96813 104.432 8.96813C104.505 9.02116 104.452 9.14843 104.471 9.23539C104.485 9.30115 104.517 9.41145 104.56 9.45387C104.596 9.4772 104.632 9.49841 104.668 9.52387C104.689 9.55144 104.678 9.59386 104.708 9.61295C104.746 9.63629 104.791 9.6278 104.827 9.65325C104.859 9.68931 104.891 9.72537 104.925 9.76143C104.954 9.78264 104.995 9.78052 105.022 9.80385C105.043 9.82082 105.054 9.859 105.071 9.88233C105.118 9.92476 105.164 9.96718 105.209 10.0117C105.228 10.0393 105.241 10.0923 105.268 10.1093C105.321 10.1496 105.398 10.1369 105.465 10.1602C105.482 10.1644 105.508 10.1941 105.525 10.2005C105.648 10.2408 105.781 10.2196 105.9 10.209C105.932 10.2047 105.983 10.2281 106.028 10.2175C106.331 10.1475 106.528 10.139 106.609 9.84203C106.621 9.80385 106.604 9.73598 106.6 9.71477C106.549 9.50053 106.517 9.48993 106.392 9.36902Z" fill="white"/>
<path d="M96.9257 9.23534C96.8897 9.21625 96.86 9.22686 96.8282 9.20777C96.7985 9.18868 96.7709 9.14201 96.7412 9.12716C96.6542 9.08474 96.5291 9.06141 96.4358 9.03808C96.3997 9.04232 96.3637 9.04444 96.3276 9.04868C96.2873 9.03808 96.2215 9.01899 96.1791 9.00838C96.1134 9.00414 96.0497 9.00202 95.984 8.9999C95.914 8.98081 95.7803 8.94475 95.6764 8.9702C95.5937 8.98929 95.4982 9.02111 95.4304 9.04868C95.3773 9.05292 95.3243 9.05504 95.2734 9.05929C95.2501 9.08262 95.2267 9.10595 95.2034 9.12716C95.1801 9.12716 95.1589 9.12716 95.1334 9.12716C95.0698 9.14625 95.0083 9.18655 94.9743 9.23534C94.968 9.23534 94.9616 9.23534 94.9552 9.23534C94.8598 9.08686 94.6583 8.85354 94.5119 8.76021C94.4695 8.74748 94.4271 8.73476 94.3847 8.72203C94.3656 8.70718 94.3698 8.68173 94.355 8.66264C94.3316 8.63082 94.2553 8.59052 94.2171 8.57355C94.1344 8.53749 94.0219 8.58204 93.9222 8.55234C93.8989 8.5481 93.865 8.52052 93.8416 8.51416C93.7738 8.51416 93.7038 8.51416 93.6338 8.51416C93.6083 8.55446 93.5617 8.59264 93.5468 8.64355C93.4789 8.84505 93.6804 9.02535 93.6338 9.19716C93.6062 9.30109 93.5786 9.46866 93.5553 9.5832C93.5468 9.63411 93.5744 9.67865 93.5553 9.74229C93.5447 9.77835 93.5171 9.81865 93.5065 9.86107C93.5065 9.92258 93.5065 9.98621 93.5065 10.0498C93.4768 10.1814 93.4768 10.3468 93.4365 10.4847C93.428 10.5165 93.3962 10.561 93.3877 10.5929C93.3877 10.6353 93.3877 10.6735 93.3877 10.7138C93.3835 10.7244 93.3623 10.7541 93.358 10.7625C93.358 10.8325 93.358 10.9004 93.358 10.9704C93.3347 11.0574 93.2859 11.1719 93.3092 11.2865C93.305 11.3246 93.3029 11.3671 93.2986 11.4052C93.3008 11.4349 93.3156 11.4625 93.3198 11.4837C93.3389 11.5686 93.2902 11.6492 93.2711 11.7107C93.2562 11.7552 93.2096 11.8379 93.2308 11.8783C93.2159 11.9695 93.1035 11.9758 93.0738 12.0861C93.0505 12.1667 93.0568 12.3152 93.0738 12.3937C93.0971 12.5082 93.0653 12.6058 93.0908 12.7097C93.1226 12.8264 93.182 12.9324 93.2096 13.0555C93.2265 13.1212 93.2053 13.2209 93.2011 13.2718C93.1862 13.4373 93.2117 13.5857 93.2392 13.6982C93.2562 13.7703 93.2159 13.8806 93.2477 13.9357C93.2541 14.0227 93.3199 14.046 93.3559 14.1033C93.4535 14.256 93.5341 14.4087 93.7207 14.4703C93.7801 14.4893 93.8607 14.4618 93.9286 14.4809C93.9498 14.4851 93.9986 14.5148 94.0262 14.5084C94.1259 14.4915 94.3147 14.379 94.3528 14.2921C94.3974 14.1839 94.3528 14.0503 94.3337 13.9654C94.3189 13.9103 94.3507 13.8954 94.3337 13.8445C94.3168 13.8021 94.2744 13.7618 94.2637 13.7173C94.2722 13.6642 94.2786 13.6112 94.2828 13.5582C94.2744 13.52 94.2298 13.4606 94.2447 13.4097C94.251 13.3864 94.2871 13.3694 94.2744 13.3206C94.2701 13.2994 94.2425 13.2782 94.2341 13.2612C94.2341 13.2379 94.2341 13.2167 94.2341 13.1912C94.2065 13.083 94.2001 12.96 94.1662 12.8561C94.1535 12.8179 94.1174 12.7818 94.1068 12.7458C94.0898 12.6864 94.1322 12.6397 94.1365 12.5973C94.1407 12.5612 94.1131 12.4913 94.128 12.4403C94.1365 12.4043 94.1577 12.3385 94.1662 12.3025C94.1747 12.2622 94.1513 12.2431 94.1471 12.2219C94.1492 12.154 94.1534 12.084 94.1556 12.0161C94.1365 11.9461 94.1386 11.8549 94.1556 11.7786C94.1556 11.7425 94.1556 11.7064 94.1556 11.6704C94.1747 11.6492 94.1959 11.6301 94.215 11.611C94.2489 11.5495 94.2744 11.4774 94.3041 11.4222C94.3316 11.3713 94.3168 11.3034 94.3634 11.2737C94.4207 11.2398 94.4843 11.2334 94.5395 11.1953C94.5819 11.1656 94.601 11.1019 94.6371 11.0659C94.6837 11.0213 94.7707 11.0044 94.8046 10.9492C94.8301 10.9047 94.8789 10.5865 94.8322 10.5123C94.8322 10.3935 94.8258 10.2917 94.8831 10.2365C94.9107 10.2047 94.9574 10.1941 94.9807 10.1559C95.0104 10.1071 95.0252 10.0498 95.0698 10.018C95.1143 9.98621 95.1822 9.97561 95.2076 9.92894C95.2479 9.85895 95.231 9.7635 95.2776 9.70199C95.337 9.53442 95.7061 9.56835 95.8588 9.63199C95.8673 9.64259 95.88 9.65108 95.8885 9.66168C95.9352 9.67017 95.9819 9.67653 96.0285 9.6829C96.0455 9.68926 96.0709 9.7232 96.0879 9.73168C96.124 9.74441 96.16 9.75926 96.1961 9.77198C96.2852 9.82501 96.3849 9.9141 96.4909 9.95016C96.5461 9.96712 96.5949 9.94803 96.6394 9.93955C96.72 9.93955 96.8027 9.93955 96.8833 9.93955C97.0254 9.90137 97.106 9.80592 97.14 9.66168C97.1888 9.47503 97.0191 9.28625 96.9257 9.23534Z" fill="white"/>
<path d="M86.8599 14.4402C86.9235 14.4721 86.9278 14.5633 87.0678 14.5314C87.1272 14.5145 87.1865 14.4975 87.2438 14.4827C87.2884 14.4445 87.2884 14.3957 87.352 14.3724C87.3668 14.2493 87.3817 14.0924 87.4114 13.9672C87.439 13.8442 87.3626 13.7594 87.4029 13.6491C87.4856 13.4136 87.6129 13.1994 87.6977 12.9767C87.7189 12.9215 87.6935 12.86 87.7168 12.7964C87.738 12.7752 87.7635 12.7497 87.7868 12.7285C87.7932 12.6797 87.7995 12.6288 87.8059 12.58C87.8377 12.5376 87.8653 12.4931 87.895 12.4506C87.8738 12.3658 87.9353 12.3467 87.9544 12.2831C87.9565 12.2237 87.9608 12.1643 87.9629 12.1049C87.9777 12.0582 88.0286 12.0328 88.0498 11.9967C88.0647 11.9564 88.0774 11.9182 88.088 11.8779C88.1729 11.8631 88.2938 11.8779 88.3532 11.9182C88.3701 11.9352 88.3871 11.95 88.4019 11.967C88.4571 11.9903 88.5589 11.9925 88.6098 12.0052C88.7286 12.037 88.9174 12.0179 89.0234 11.9967C89.1868 11.9607 89.4583 11.9946 89.6046 12.0264C89.6958 12.0455 89.7128 12.0031 89.7913 12.0476C89.8019 12.0773 89.8252 12.1261 89.8316 12.1452C89.8528 12.2088 89.787 12.3 89.7722 12.3425C89.7637 12.4146 89.7531 12.4824 89.7425 12.5503C89.7234 12.614 89.6852 12.6946 89.664 12.7688C89.6258 12.9109 89.6682 13.0488 89.5961 13.1442C89.5792 13.1654 89.5558 13.1824 89.5261 13.1654C89.4689 13.1633 89.4307 13.1676 89.3989 13.1845C89.4052 13.28 89.4455 13.3394 89.4689 13.4115C89.471 13.4454 89.4752 13.4794 89.4773 13.5112C89.5007 13.5812 89.5495 13.666 89.577 13.7275C89.5834 13.77 89.5898 13.8145 89.5961 13.8569C89.6216 13.9312 89.6852 13.9842 89.7234 14.0436C89.7404 14.0903 89.7573 14.1369 89.7722 14.1836C89.8443 14.2896 90.0437 14.3554 90.137 14.4508C90.364 14.4424 90.6185 14.1327 90.68 13.946C90.7034 13.8739 90.6737 13.7891 90.7012 13.7085C90.7224 13.6448 90.7818 13.5409 90.7988 13.4709C90.7946 13.4476 90.7924 13.4263 90.7882 13.403C90.7924 13.2927 90.7946 13.1845 90.7988 13.0764C90.8582 12.8155 90.8497 12.4994 90.9261 12.2449C90.9833 12.23 91.0597 12.1982 91.1148 12.1855C91.1997 12.1961 91.2845 12.2046 91.3715 12.2152C91.6472 12.1791 91.9781 12.1325 92.0418 11.8779C92.0651 11.7825 92.0015 11.721 91.9824 11.6616C91.9378 11.5279 91.8912 11.4516 91.7851 11.3858C91.7406 11.3731 91.6939 11.3583 91.6494 11.3455C91.6048 11.318 91.573 11.2543 91.52 11.2352C91.4415 11.2331 91.363 11.2289 91.2845 11.2267C91.2506 11.2183 91.2294 11.1886 91.2039 11.178C91.1445 11.1695 91.0852 11.1567 91.0279 11.1483C90.9876 11.1313 90.9536 11.0825 90.9112 11.0592C90.89 10.9552 90.9112 10.8301 90.9303 10.7325C90.9303 10.6413 90.9303 10.5544 90.9303 10.4653C90.9346 10.4441 90.9536 10.3847 90.96 10.3571C90.96 10.3062 90.96 10.2574 90.96 10.2086C90.9749 10.1641 91.0236 10.1216 91.0385 10.0792C91.0491 9.95408 91.0576 9.82893 91.0682 9.70378C91.0703 9.49591 90.82 9.17563 90.9685 8.98048C91.0088 8.90412 91.1 8.91473 91.1848 8.88291C91.2782 8.84897 91.4054 8.77898 91.45 8.69625C91.4564 8.6602 91.4648 8.62414 91.4712 8.58596C91.5391 8.35475 91.3757 8.21476 91.2633 8.10234C91.2358 8.07265 91.2103 8.04295 91.1848 8.01325C91.0915 7.96447 90.9473 7.95386 90.8412 7.92417C90.7352 7.89447 90.5718 7.9475 90.487 7.89447C90.4064 7.88811 90.3088 7.78205 90.26 7.73539C90.1964 7.74599 90.1688 7.78417 90.1222 7.81387C90.1179 7.81599 90.1158 7.82023 90.1116 7.82235C90.0755 7.76296 90.0416 7.68236 89.9758 7.65479C89.9419 7.65054 89.9079 7.64206 89.8761 7.6357C89.804 7.59752 89.8082 7.57418 89.6789 7.57631C89.6322 7.61236 89.5325 7.67388 89.4816 7.69509C89.4455 7.71206 89.4137 7.69933 89.384 7.71418C89.3416 7.73963 89.3077 7.80326 89.2652 7.82448C89.2313 7.84357 89.191 7.8266 89.1677 7.85417C89.1592 7.88387 89.1486 7.91356 89.138 7.94326C89.0658 8.08113 89.0171 8.26143 88.9301 8.38869C88.8834 8.45869 88.7901 8.52656 88.7434 8.59656C88.718 8.6305 88.718 8.67929 88.6925 8.71534C88.6183 8.82988 88.525 8.94442 88.4571 9.06109C88.4253 9.11199 88.4507 9.18623 88.4274 9.24987C88.4062 9.30714 88.2938 9.4344 88.2598 9.49591C88.2365 9.53834 88.2747 9.585 88.2492 9.6253C88.2153 9.68045 88.1304 9.71863 88.0923 9.77378C88.0838 9.78863 88.0265 9.8862 88.0223 9.89256C88.0223 9.92014 88.0223 9.94559 88.0223 9.97317C88.0095 10.0029 87.9523 10.0198 87.9353 10.0538C87.9162 10.0877 87.9226 10.1216 87.9056 10.1535C87.8653 10.2171 87.8017 10.2807 87.7677 10.3507C87.755 10.4059 87.7402 10.461 87.7295 10.5183C87.6935 10.618 87.6256 10.7028 87.5599 10.7771C87.4856 10.7707 87.4877 10.7368 87.4432 10.7177C87.3774 10.7071 87.3117 10.6986 87.2459 10.688C87.2226 10.7092 87.1993 10.7283 87.1781 10.7474C87.1738 10.8619 87.1887 10.9701 87.2374 11.0634C87.2799 11.1483 87.3711 11.2119 87.3265 11.3604C87.3032 11.4389 87.2523 11.5195 87.2162 11.5873C87.2078 11.634 87.1972 11.6807 87.1865 11.7252C87.1696 11.7719 87.125 11.8355 87.1059 11.8843C87.1038 11.9119 87.1017 11.9373 87.0975 11.9649C87.0784 12.0073 87.0275 12.0582 87.0084 12.1028C87.0084 12.1473 87.0084 12.1897 87.0084 12.2322C86.9956 12.2703 86.9638 12.334 86.9405 12.3721C86.8938 12.4464 86.7793 12.4846 86.7178 12.5567V14.4021C86.7199 14.4042 86.722 14.4084 86.7241 14.4105C86.7602 14.4275 86.8153 14.419 86.8599 14.4402ZM88.6416 10.7983C88.6692 10.724 88.6331 10.635 88.6522 10.5713C88.6841 10.4653 88.7625 10.4292 88.8198 10.355C88.858 10.3041 88.8983 10.2235 88.9471 10.1853C88.9789 10.1619 89.0234 10.1471 89.0468 10.1174C89.0722 10.0813 89.0786 10.0347 89.1062 9.99862C89.1401 9.95195 89.2058 9.91165 89.2334 9.86075C89.2631 9.80984 89.2525 9.71015 89.2928 9.67197C89.3204 9.64651 89.3777 9.66136 89.401 9.63167C89.4583 9.56167 89.4583 9.43652 89.5092 9.36653C89.5473 9.3135 89.6258 9.27956 89.6767 9.23714C89.7043 9.21381 89.6916 9.15654 89.7149 9.12896C89.7234 9.12048 89.7467 9.11836 89.7552 9.10987C89.7976 9.06745 89.8337 9.01442 89.8634 8.95927C89.8804 8.95927 89.8973 8.95927 89.9122 8.95927C89.9313 9.06109 89.944 9.21805 89.9122 9.34744C89.8995 9.41531 89.8846 9.48531 89.8719 9.55318C89.8804 9.61046 89.8634 9.77802 89.8719 9.81196C89.9185 9.97317 89.9313 10.4207 89.891 10.6031C89.8698 10.705 89.8782 11.0125 89.8316 11.0677C89.8316 11.0761 89.8316 11.0804 89.8316 11.0889C89.751 11.0974 89.6598 11.0931 89.5855 11.0783C89.5092 11.0613 89.418 11.0868 89.3692 11.0974C89.2801 11.1186 89.1549 11.0931 89.0828 11.0783C89.0213 11.0655 88.9577 11.0974 88.9153 11.108C88.7689 11.144 88.6119 11.0486 88.5801 10.9595C88.5674 10.9149 88.6289 10.8428 88.6416 10.7983Z" fill="white"/>
</g>
<defs>
<clipPath id="clip0_235_108">
<rect width="120" height="37.5968" fill="white"/>
</clipPath>
</defs>
</svg>
